%TF.GenerationSoftware,KiCad,Pcbnew,(5.1.5)-3*%
%TF.CreationDate,2020-05-13T22:36:07+03:00*%
%TF.ProjectId,dash-board,64617368-2d62-46f6-9172-642e6b696361,rev?*%
%TF.SameCoordinates,Original*%
%TF.FileFunction,Legend,Bot*%
%TF.FilePolarity,Positive*%
%FSLAX46Y46*%
G04 Gerber Fmt 4.6, Leading zero omitted, Abs format (unit mm)*
G04 Created by KiCad (PCBNEW (5.1.5)-3) date 2020-05-13 22:36:07*
%MOMM*%
%LPD*%
G04 APERTURE LIST*
%ADD10C,0.120000*%
%ADD11C,0.152400*%
%ADD12C,0.300000*%
%ADD13C,0.127000*%
%ADD14C,0.150000*%
%ADD15C,0.015000*%
G04 APERTURE END LIST*
D10*
X94460000Y-63897936D02*
X94460000Y-65102064D01*
X91740000Y-63897936D02*
X91740000Y-65102064D01*
X124560000Y-63797936D02*
X124560000Y-65002064D01*
X121840000Y-63797936D02*
X121840000Y-65002064D01*
X104460000Y-63897936D02*
X104460000Y-65102064D01*
X101740000Y-63897936D02*
X101740000Y-65102064D01*
D11*
X113538000Y-84264500D02*
X113538000Y-71691500D01*
X123698000Y-84264500D02*
X113538000Y-84264500D01*
X123698000Y-71691500D02*
X123698000Y-84264500D01*
X113538000Y-71691500D02*
X123698000Y-71691500D01*
X76454000Y-84264500D02*
X76454000Y-71691500D01*
X86614000Y-84264500D02*
X76454000Y-84264500D01*
X86614000Y-71691500D02*
X86614000Y-84264500D01*
X76454000Y-71691500D02*
X86614000Y-71691500D01*
D10*
X72385436Y-104440000D02*
X73589564Y-104440000D01*
X72385436Y-107160000D02*
X73589564Y-107160000D01*
D12*
X62498000Y-100330000D02*
G75*
G03X62498000Y-100330000I-150000J0D01*
G01*
D13*
X46598000Y-95830000D02*
X54848000Y-95830000D01*
X46598000Y-104830000D02*
X46598000Y-95830000D01*
X61098000Y-95830000D02*
X59548000Y-95830000D01*
X61098000Y-97830000D02*
X61098000Y-95830000D01*
X61098000Y-104830000D02*
X61098000Y-103030000D01*
X46598000Y-104830000D02*
X61098000Y-104830000D01*
D10*
X77910000Y-103697936D02*
X77910000Y-104902064D01*
X76090000Y-103697936D02*
X76090000Y-104902064D01*
X62994000Y-107444000D02*
X62994000Y-127384000D01*
X62994000Y-107444000D02*
X76584000Y-107444000D01*
X76584000Y-127384000D02*
X76584000Y-107444000D01*
X62994000Y-127384000D02*
X76584000Y-127384000D01*
X64680000Y-98609564D02*
X64680000Y-97405436D01*
X67400000Y-98609564D02*
X67400000Y-97405436D01*
X97118000Y-133292436D02*
X97118000Y-134496564D01*
X94398000Y-133292436D02*
X94398000Y-134496564D01*
X64138564Y-79084000D02*
X62934436Y-79084000D01*
X64138564Y-76364000D02*
X62934436Y-76364000D01*
X135060000Y-65797936D02*
X135060000Y-67002064D01*
X132340000Y-65797936D02*
X132340000Y-67002064D01*
X114960000Y-64085436D02*
X114960000Y-65289564D01*
X112240000Y-64085436D02*
X112240000Y-65289564D01*
X85560000Y-63897936D02*
X85560000Y-65102064D01*
X82840000Y-63897936D02*
X82840000Y-65102064D01*
X75360000Y-64397936D02*
X75360000Y-65602064D01*
X72640000Y-64397936D02*
X72640000Y-65602064D01*
X65660000Y-66097936D02*
X65660000Y-67302064D01*
X62940000Y-66097936D02*
X62940000Y-67302064D01*
X96466000Y-98156000D02*
X95176000Y-98156000D01*
X96466000Y-98606000D02*
X96466000Y-98156000D01*
X96916000Y-98606000D02*
X96466000Y-98606000D01*
X103686000Y-98606000D02*
X103686000Y-98156000D01*
X103236000Y-98606000D02*
X103686000Y-98606000D01*
X96466000Y-91386000D02*
X96466000Y-91836000D01*
X96916000Y-91386000D02*
X96466000Y-91386000D01*
X103686000Y-91386000D02*
X103686000Y-91836000D01*
X103236000Y-91386000D02*
X103686000Y-91386000D01*
X55296000Y-89876000D02*
X55996000Y-89876000D01*
X55296000Y-89626000D02*
X55296000Y-89876000D01*
X55996000Y-89626000D02*
X55296000Y-89626000D01*
X55996000Y-90726000D02*
X55996000Y-89876000D01*
X58646000Y-90726000D02*
X55996000Y-90726000D01*
X58646000Y-87226000D02*
X58646000Y-90726000D01*
X59546000Y-87226000D02*
X58646000Y-87226000D01*
X55296000Y-72226000D02*
X55996000Y-72226000D01*
X55296000Y-72476000D02*
X55296000Y-72226000D01*
X55996000Y-72476000D02*
X55296000Y-72476000D01*
X55996000Y-71376000D02*
X55996000Y-72226000D01*
X58646000Y-71376000D02*
X55996000Y-71376000D01*
X58646000Y-74876000D02*
X58646000Y-71376000D01*
X59546000Y-74876000D02*
X58646000Y-74876000D01*
X55496000Y-75276000D02*
X55496000Y-74276000D01*
X55746000Y-74276000D02*
X55746000Y-75276000D01*
X55746000Y-75276000D02*
X55496000Y-75276000D01*
X55746000Y-86826000D02*
X55746000Y-87826000D01*
X55496000Y-86826000D02*
X55746000Y-86826000D01*
X55496000Y-87826000D02*
X55496000Y-86826000D01*
X58246000Y-74526000D02*
G75*
G03X57996000Y-74276000I-250000J0D01*
G01*
X57996000Y-87826000D02*
G75*
G03X58246000Y-87576000I0J250000D01*
G01*
X57996000Y-74276000D02*
X55746000Y-74276000D01*
X58246000Y-87576000D02*
X58246000Y-74526000D01*
X55746000Y-87826000D02*
X57996000Y-87826000D01*
X144475000Y-72256000D02*
X143775000Y-72256000D01*
X144475000Y-72506000D02*
X144475000Y-72256000D01*
X143775000Y-72506000D02*
X144475000Y-72506000D01*
X143775000Y-71406000D02*
X143775000Y-72256000D01*
X141125000Y-71406000D02*
X143775000Y-71406000D01*
X141125000Y-74906000D02*
X141125000Y-71406000D01*
X140225000Y-74906000D02*
X141125000Y-74906000D01*
X144475000Y-89906000D02*
X143775000Y-89906000D01*
X144475000Y-89656000D02*
X144475000Y-89906000D01*
X143775000Y-89656000D02*
X144475000Y-89656000D01*
X143775000Y-90756000D02*
X143775000Y-89906000D01*
X141125000Y-90756000D02*
X143775000Y-90756000D01*
X141125000Y-87256000D02*
X141125000Y-90756000D01*
X140225000Y-87256000D02*
X141125000Y-87256000D01*
X144275000Y-86856000D02*
X144275000Y-87856000D01*
X144025000Y-87856000D02*
X144025000Y-86856000D01*
X144025000Y-86856000D02*
X144275000Y-86856000D01*
X144025000Y-75306000D02*
X144025000Y-74306000D01*
X144275000Y-75306000D02*
X144025000Y-75306000D01*
X144275000Y-74306000D02*
X144275000Y-75306000D01*
X141525000Y-87606000D02*
G75*
G03X141775000Y-87856000I250000J0D01*
G01*
X141775000Y-74306000D02*
G75*
G03X141525000Y-74556000I0J-250000D01*
G01*
X141775000Y-87856000D02*
X144025000Y-87856000D01*
X141525000Y-74556000D02*
X141525000Y-87606000D01*
X144025000Y-74306000D02*
X141775000Y-74306000D01*
X136274000Y-127384000D02*
X136274000Y-107444000D01*
X136274000Y-127384000D02*
X122684000Y-127384000D01*
X122684000Y-107444000D02*
X136274000Y-107444000D01*
X122684000Y-107444000D02*
X122684000Y-127384000D01*
X108718000Y-126742000D02*
X108718000Y-110492000D01*
X108718000Y-126742000D02*
X94998000Y-126742000D01*
X94998000Y-110492000D02*
X108718000Y-110492000D01*
X94998000Y-110492000D02*
X94998000Y-126742000D01*
X59130000Y-111930922D02*
X59130000Y-112448078D01*
X57710000Y-111930922D02*
X57710000Y-112448078D01*
X59130000Y-132504922D02*
X59130000Y-133022078D01*
X57710000Y-132504922D02*
X57710000Y-133022078D01*
X145998000Y-111833922D02*
X145998000Y-112351078D01*
X144578000Y-111833922D02*
X144578000Y-112351078D01*
X88498000Y-82768064D02*
X88498000Y-81563936D01*
X90318000Y-82768064D02*
X90318000Y-81563936D01*
X127402000Y-81563936D02*
X127402000Y-82768064D01*
X125582000Y-81563936D02*
X125582000Y-82768064D01*
X65750064Y-105050000D02*
X64545936Y-105050000D01*
X65750064Y-103230000D02*
X64545936Y-103230000D01*
X134584064Y-105304000D02*
X133379936Y-105304000D01*
X134584064Y-103484000D02*
X133379936Y-103484000D01*
X109590000Y-123902064D02*
X109590000Y-122697936D01*
X111410000Y-123902064D02*
X111410000Y-122697936D01*
X128964000Y-71239000D02*
X128964000Y-78174000D01*
X125544000Y-71239000D02*
X128964000Y-71239000D01*
X125544000Y-78174000D02*
X125544000Y-71239000D01*
X94420000Y-71493000D02*
X94420000Y-78428000D01*
X91000000Y-71493000D02*
X94420000Y-71493000D01*
X91000000Y-78428000D02*
X91000000Y-71493000D01*
X78120000Y-116434500D02*
X78120000Y-108249500D01*
X84440000Y-116434500D02*
X78120000Y-116434500D01*
X84440000Y-108249500D02*
X84440000Y-116434500D01*
X78120000Y-127331500D02*
X78120000Y-119146500D01*
X84440000Y-127331500D02*
X78120000Y-127331500D01*
X84440000Y-119146500D02*
X84440000Y-127331500D01*
X114950000Y-127356500D02*
X114950000Y-119171500D01*
X121270000Y-127356500D02*
X114950000Y-127356500D01*
X121270000Y-119171500D02*
X121270000Y-127356500D01*
X114950000Y-116434500D02*
X114950000Y-108249500D01*
X121270000Y-116434500D02*
X114950000Y-116434500D01*
X121270000Y-108249500D02*
X121270000Y-116434500D01*
X89476000Y-113685000D02*
X89476000Y-106750000D01*
X92896000Y-113685000D02*
X89476000Y-113685000D01*
X92896000Y-106750000D02*
X92896000Y-113685000D01*
X109081000Y-108644000D02*
X102146000Y-108644000D01*
X109081000Y-105224000D02*
X109081000Y-108644000D01*
X102146000Y-105224000D02*
X109081000Y-105224000D01*
X124371000Y-91046000D02*
X119761000Y-91046000D01*
X124371000Y-98946000D02*
X124371000Y-91046000D01*
X118961000Y-98946000D02*
X124371000Y-98946000D01*
X118961000Y-91846000D02*
X118961000Y-98946000D01*
X119761000Y-91046000D02*
X118961000Y-91846000D01*
X78897936Y-68240000D02*
X80102064Y-68240000D01*
X78897936Y-70960000D02*
X80102064Y-70960000D01*
X90260000Y-73785436D02*
X90260000Y-74989564D01*
X87540000Y-73785436D02*
X87540000Y-74989564D01*
X115614564Y-70860000D02*
X114410436Y-70860000D01*
X115614564Y-68140000D02*
X114410436Y-68140000D01*
X125560000Y-104085436D02*
X125560000Y-105289564D01*
X122840000Y-104085436D02*
X122840000Y-105289564D01*
X121510000Y-104097936D02*
X121510000Y-105302064D01*
X119690000Y-104097936D02*
X119690000Y-105302064D01*
X135832436Y-83222000D02*
X137036564Y-83222000D01*
X135832436Y-85942000D02*
X137036564Y-85942000D01*
X110040420Y-140802840D02*
X110040420Y-139602840D01*
X88230420Y-146602840D02*
X88230420Y-144862840D01*
X111530420Y-146602840D02*
X88230420Y-146602840D01*
X111530420Y-144862840D02*
X111530420Y-146602840D01*
X88230420Y-140802840D02*
X88230420Y-142142840D01*
X89720420Y-140802840D02*
X88230420Y-140802840D01*
X111530420Y-140802840D02*
X111530420Y-142142840D01*
X110040420Y-140802840D02*
X111530420Y-140802840D01*
X137036564Y-89244000D02*
X135832436Y-89244000D01*
X137036564Y-86524000D02*
X135832436Y-86524000D01*
X55716000Y-111629436D02*
X55716000Y-112833564D01*
X52996000Y-111629436D02*
X52996000Y-112833564D01*
X55716000Y-132276436D02*
X55716000Y-133480564D01*
X52996000Y-132276436D02*
X52996000Y-133480564D01*
X142838000Y-132203436D02*
X142838000Y-133407564D01*
X140118000Y-132203436D02*
X140118000Y-133407564D01*
X142584000Y-111375436D02*
X142584000Y-112579564D01*
X139864000Y-111375436D02*
X139864000Y-112579564D01*
X122231564Y-70956000D02*
X121027436Y-70956000D01*
X122231564Y-68236000D02*
X121027436Y-68236000D01*
X97847564Y-108548000D02*
X96643436Y-108548000D01*
X97847564Y-105828000D02*
X96643436Y-105828000D01*
X62934436Y-86270000D02*
X64138564Y-86270000D01*
X62934436Y-88990000D02*
X64138564Y-88990000D01*
X137036564Y-75782000D02*
X135832436Y-75782000D01*
X137036564Y-73062000D02*
X135832436Y-73062000D01*
X137036564Y-79084000D02*
X135832436Y-79084000D01*
X137036564Y-76364000D02*
X135832436Y-76364000D01*
X89826000Y-134496564D02*
X89826000Y-133292436D01*
X92546000Y-134496564D02*
X92546000Y-133292436D01*
X116168000Y-94684436D02*
X116168000Y-95888564D01*
X113448000Y-94684436D02*
X113448000Y-95888564D01*
X103288000Y-134496564D02*
X103288000Y-133292436D01*
X106008000Y-134496564D02*
X106008000Y-133292436D01*
X62934436Y-82968000D02*
X64138564Y-82968000D01*
X62934436Y-85688000D02*
X64138564Y-85688000D01*
X100240000Y-83950564D02*
X100240000Y-82746436D01*
X102960000Y-83950564D02*
X102960000Y-82746436D01*
X145236000Y-132589748D02*
X145236000Y-133112252D01*
X143816000Y-132589748D02*
X143816000Y-133112252D01*
X95668000Y-83950564D02*
X95668000Y-82746436D01*
X98388000Y-83950564D02*
X98388000Y-82746436D01*
X62934436Y-73062000D02*
X64138564Y-73062000D01*
X62934436Y-75782000D02*
X64138564Y-75782000D01*
D14*
X91177142Y-63857142D02*
X91224761Y-63809523D01*
X91272380Y-63666666D01*
X91272380Y-63571428D01*
X91224761Y-63428571D01*
X91129523Y-63333333D01*
X91034285Y-63285714D01*
X90843809Y-63238095D01*
X90700952Y-63238095D01*
X90510476Y-63285714D01*
X90415238Y-63333333D01*
X90320000Y-63428571D01*
X90272380Y-63571428D01*
X90272380Y-63666666D01*
X90320000Y-63809523D01*
X90367619Y-63857142D01*
X90367619Y-64238095D02*
X90320000Y-64285714D01*
X90272380Y-64380952D01*
X90272380Y-64619047D01*
X90320000Y-64714285D01*
X90367619Y-64761904D01*
X90462857Y-64809523D01*
X90558095Y-64809523D01*
X90700952Y-64761904D01*
X91272380Y-64190476D01*
X91272380Y-64809523D01*
X90272380Y-65714285D02*
X90272380Y-65238095D01*
X90748571Y-65190476D01*
X90700952Y-65238095D01*
X90653333Y-65333333D01*
X90653333Y-65571428D01*
X90700952Y-65666666D01*
X90748571Y-65714285D01*
X90843809Y-65761904D01*
X91081904Y-65761904D01*
X91177142Y-65714285D01*
X91224761Y-65666666D01*
X91272380Y-65571428D01*
X91272380Y-65333333D01*
X91224761Y-65238095D01*
X91177142Y-65190476D01*
X121277142Y-63757142D02*
X121324761Y-63709523D01*
X121372380Y-63566666D01*
X121372380Y-63471428D01*
X121324761Y-63328571D01*
X121229523Y-63233333D01*
X121134285Y-63185714D01*
X120943809Y-63138095D01*
X120800952Y-63138095D01*
X120610476Y-63185714D01*
X120515238Y-63233333D01*
X120420000Y-63328571D01*
X120372380Y-63471428D01*
X120372380Y-63566666D01*
X120420000Y-63709523D01*
X120467619Y-63757142D01*
X120467619Y-64138095D02*
X120420000Y-64185714D01*
X120372380Y-64280952D01*
X120372380Y-64519047D01*
X120420000Y-64614285D01*
X120467619Y-64661904D01*
X120562857Y-64709523D01*
X120658095Y-64709523D01*
X120800952Y-64661904D01*
X121372380Y-64090476D01*
X121372380Y-64709523D01*
X120800952Y-65280952D02*
X120753333Y-65185714D01*
X120705714Y-65138095D01*
X120610476Y-65090476D01*
X120562857Y-65090476D01*
X120467619Y-65138095D01*
X120420000Y-65185714D01*
X120372380Y-65280952D01*
X120372380Y-65471428D01*
X120420000Y-65566666D01*
X120467619Y-65614285D01*
X120562857Y-65661904D01*
X120610476Y-65661904D01*
X120705714Y-65614285D01*
X120753333Y-65566666D01*
X120800952Y-65471428D01*
X120800952Y-65280952D01*
X120848571Y-65185714D01*
X120896190Y-65138095D01*
X120991428Y-65090476D01*
X121181904Y-65090476D01*
X121277142Y-65138095D01*
X121324761Y-65185714D01*
X121372380Y-65280952D01*
X121372380Y-65471428D01*
X121324761Y-65566666D01*
X121277142Y-65614285D01*
X121181904Y-65661904D01*
X120991428Y-65661904D01*
X120896190Y-65614285D01*
X120848571Y-65566666D01*
X120800952Y-65471428D01*
X101177142Y-63857142D02*
X101224761Y-63809523D01*
X101272380Y-63666666D01*
X101272380Y-63571428D01*
X101224761Y-63428571D01*
X101129523Y-63333333D01*
X101034285Y-63285714D01*
X100843809Y-63238095D01*
X100700952Y-63238095D01*
X100510476Y-63285714D01*
X100415238Y-63333333D01*
X100320000Y-63428571D01*
X100272380Y-63571428D01*
X100272380Y-63666666D01*
X100320000Y-63809523D01*
X100367619Y-63857142D01*
X100367619Y-64238095D02*
X100320000Y-64285714D01*
X100272380Y-64380952D01*
X100272380Y-64619047D01*
X100320000Y-64714285D01*
X100367619Y-64761904D01*
X100462857Y-64809523D01*
X100558095Y-64809523D01*
X100700952Y-64761904D01*
X101272380Y-64190476D01*
X101272380Y-64809523D01*
X100272380Y-65666666D02*
X100272380Y-65476190D01*
X100320000Y-65380952D01*
X100367619Y-65333333D01*
X100510476Y-65238095D01*
X100700952Y-65190476D01*
X101081904Y-65190476D01*
X101177142Y-65238095D01*
X101224761Y-65285714D01*
X101272380Y-65380952D01*
X101272380Y-65571428D01*
X101224761Y-65666666D01*
X101177142Y-65714285D01*
X101081904Y-65761904D01*
X100843809Y-65761904D01*
X100748571Y-65714285D01*
X100700952Y-65666666D01*
X100653333Y-65571428D01*
X100653333Y-65380952D01*
X100700952Y-65285714D01*
X100748571Y-65238095D01*
X100843809Y-65190476D01*
X119379904Y-84796380D02*
X119379904Y-85605904D01*
X119332285Y-85701142D01*
X119284666Y-85748761D01*
X119189428Y-85796380D01*
X118998952Y-85796380D01*
X118903714Y-85748761D01*
X118856095Y-85701142D01*
X118808476Y-85605904D01*
X118808476Y-84796380D01*
X118427523Y-84796380D02*
X117808476Y-84796380D01*
X118141809Y-85177333D01*
X117998952Y-85177333D01*
X117903714Y-85224952D01*
X117856095Y-85272571D01*
X117808476Y-85367809D01*
X117808476Y-85605904D01*
X117856095Y-85701142D01*
X117903714Y-85748761D01*
X117998952Y-85796380D01*
X118284666Y-85796380D01*
X118379904Y-85748761D01*
X118427523Y-85701142D01*
X82295904Y-84796380D02*
X82295904Y-85605904D01*
X82248285Y-85701142D01*
X82200666Y-85748761D01*
X82105428Y-85796380D01*
X81914952Y-85796380D01*
X81819714Y-85748761D01*
X81772095Y-85701142D01*
X81724476Y-85605904D01*
X81724476Y-84796380D01*
X80724476Y-85796380D02*
X81295904Y-85796380D01*
X81010190Y-85796380D02*
X81010190Y-84796380D01*
X81105428Y-84939238D01*
X81200666Y-85034476D01*
X81295904Y-85082095D01*
X73630357Y-108437142D02*
X73677976Y-108484761D01*
X73820833Y-108532380D01*
X73916071Y-108532380D01*
X74058928Y-108484761D01*
X74154166Y-108389523D01*
X74201785Y-108294285D01*
X74249404Y-108103809D01*
X74249404Y-107960952D01*
X74201785Y-107770476D01*
X74154166Y-107675238D01*
X74058928Y-107580000D01*
X73916071Y-107532380D01*
X73820833Y-107532380D01*
X73677976Y-107580000D01*
X73630357Y-107627619D01*
X72677976Y-108532380D02*
X73249404Y-108532380D01*
X72963690Y-108532380D02*
X72963690Y-107532380D01*
X73058928Y-107675238D01*
X73154166Y-107770476D01*
X73249404Y-107818095D01*
X71725595Y-108532380D02*
X72297023Y-108532380D01*
X72011309Y-108532380D02*
X72011309Y-107532380D01*
X72106547Y-107675238D01*
X72201785Y-107770476D01*
X72297023Y-107818095D01*
D15*
X57489784Y-92324096D02*
X57489784Y-93324124D01*
X57556453Y-93524130D01*
X57689790Y-93657467D01*
X57889795Y-93724135D01*
X58023132Y-93724135D01*
X56223082Y-92790776D02*
X56223082Y-93724135D01*
X56556425Y-92257428D02*
X56889767Y-93257456D01*
X56023077Y-93257456D01*
D14*
X75537142Y-103657142D02*
X75584761Y-103609523D01*
X75632380Y-103466666D01*
X75632380Y-103371428D01*
X75584761Y-103228571D01*
X75489523Y-103133333D01*
X75394285Y-103085714D01*
X75203809Y-103038095D01*
X75060952Y-103038095D01*
X74870476Y-103085714D01*
X74775238Y-103133333D01*
X74680000Y-103228571D01*
X74632380Y-103371428D01*
X74632380Y-103466666D01*
X74680000Y-103609523D01*
X74727619Y-103657142D01*
X75632380Y-104609523D02*
X75632380Y-104038095D01*
X75632380Y-104323809D02*
X74632380Y-104323809D01*
X74775238Y-104228571D01*
X74870476Y-104133333D01*
X74918095Y-104038095D01*
X74727619Y-104990476D02*
X74680000Y-105038095D01*
X74632380Y-105133333D01*
X74632380Y-105371428D01*
X74680000Y-105466666D01*
X74727619Y-105514285D01*
X74822857Y-105561904D01*
X74918095Y-105561904D01*
X75060952Y-105514285D01*
X75632380Y-104942857D01*
X75632380Y-105561904D01*
X64769904Y-127722380D02*
X64769904Y-128531904D01*
X64722285Y-128627142D01*
X64674666Y-128674761D01*
X64579428Y-128722380D01*
X64388952Y-128722380D01*
X64293714Y-128674761D01*
X64246095Y-128627142D01*
X64198476Y-128531904D01*
X64198476Y-127722380D01*
X63817523Y-127722380D02*
X63150857Y-127722380D01*
X63579428Y-128722380D01*
X68677142Y-97364642D02*
X68724761Y-97317023D01*
X68772380Y-97174166D01*
X68772380Y-97078928D01*
X68724761Y-96936071D01*
X68629523Y-96840833D01*
X68534285Y-96793214D01*
X68343809Y-96745595D01*
X68200952Y-96745595D01*
X68010476Y-96793214D01*
X67915238Y-96840833D01*
X67820000Y-96936071D01*
X67772380Y-97078928D01*
X67772380Y-97174166D01*
X67820000Y-97317023D01*
X67867619Y-97364642D01*
X68105714Y-98221785D02*
X68772380Y-98221785D01*
X67724761Y-97983690D02*
X68439047Y-97745595D01*
X68439047Y-98364642D01*
X67772380Y-98650357D02*
X67772380Y-99317023D01*
X68772380Y-98888452D01*
X93835142Y-133251642D02*
X93882761Y-133204023D01*
X93930380Y-133061166D01*
X93930380Y-132965928D01*
X93882761Y-132823071D01*
X93787523Y-132727833D01*
X93692285Y-132680214D01*
X93501809Y-132632595D01*
X93358952Y-132632595D01*
X93168476Y-132680214D01*
X93073238Y-132727833D01*
X92978000Y-132823071D01*
X92930380Y-132965928D01*
X92930380Y-133061166D01*
X92978000Y-133204023D01*
X93025619Y-133251642D01*
X92930380Y-133584976D02*
X92930380Y-134204023D01*
X93311333Y-133870690D01*
X93311333Y-134013547D01*
X93358952Y-134108785D01*
X93406571Y-134156404D01*
X93501809Y-134204023D01*
X93739904Y-134204023D01*
X93835142Y-134156404D01*
X93882761Y-134108785D01*
X93930380Y-134013547D01*
X93930380Y-133727833D01*
X93882761Y-133632595D01*
X93835142Y-133584976D01*
X92930380Y-135108785D02*
X92930380Y-134632595D01*
X93406571Y-134584976D01*
X93358952Y-134632595D01*
X93311333Y-134727833D01*
X93311333Y-134965928D01*
X93358952Y-135061166D01*
X93406571Y-135108785D01*
X93501809Y-135156404D01*
X93739904Y-135156404D01*
X93835142Y-135108785D01*
X93882761Y-135061166D01*
X93930380Y-134965928D01*
X93930380Y-134727833D01*
X93882761Y-134632595D01*
X93835142Y-134584976D01*
X67159142Y-77081142D02*
X67206761Y-77033523D01*
X67254380Y-76890666D01*
X67254380Y-76795428D01*
X67206761Y-76652571D01*
X67111523Y-76557333D01*
X67016285Y-76509714D01*
X66825809Y-76462095D01*
X66682952Y-76462095D01*
X66492476Y-76509714D01*
X66397238Y-76557333D01*
X66302000Y-76652571D01*
X66254380Y-76795428D01*
X66254380Y-76890666D01*
X66302000Y-77033523D01*
X66349619Y-77081142D01*
X66254380Y-77414476D02*
X66254380Y-78033523D01*
X66635333Y-77700190D01*
X66635333Y-77843047D01*
X66682952Y-77938285D01*
X66730571Y-77985904D01*
X66825809Y-78033523D01*
X67063904Y-78033523D01*
X67159142Y-77985904D01*
X67206761Y-77938285D01*
X67254380Y-77843047D01*
X67254380Y-77557333D01*
X67206761Y-77462095D01*
X67159142Y-77414476D01*
X66254380Y-78366857D02*
X66254380Y-78985904D01*
X66635333Y-78652571D01*
X66635333Y-78795428D01*
X66682952Y-78890666D01*
X66730571Y-78938285D01*
X66825809Y-78985904D01*
X67063904Y-78985904D01*
X67159142Y-78938285D01*
X67206761Y-78890666D01*
X67254380Y-78795428D01*
X67254380Y-78509714D01*
X67206761Y-78414476D01*
X67159142Y-78366857D01*
X131777142Y-65757142D02*
X131824761Y-65709523D01*
X131872380Y-65566666D01*
X131872380Y-65471428D01*
X131824761Y-65328571D01*
X131729523Y-65233333D01*
X131634285Y-65185714D01*
X131443809Y-65138095D01*
X131300952Y-65138095D01*
X131110476Y-65185714D01*
X131015238Y-65233333D01*
X130920000Y-65328571D01*
X130872380Y-65471428D01*
X130872380Y-65566666D01*
X130920000Y-65709523D01*
X130967619Y-65757142D01*
X130967619Y-66138095D02*
X130920000Y-66185714D01*
X130872380Y-66280952D01*
X130872380Y-66519047D01*
X130920000Y-66614285D01*
X130967619Y-66661904D01*
X131062857Y-66709523D01*
X131158095Y-66709523D01*
X131300952Y-66661904D01*
X131872380Y-66090476D01*
X131872380Y-66709523D01*
X131872380Y-67185714D02*
X131872380Y-67376190D01*
X131824761Y-67471428D01*
X131777142Y-67519047D01*
X131634285Y-67614285D01*
X131443809Y-67661904D01*
X131062857Y-67661904D01*
X130967619Y-67614285D01*
X130920000Y-67566666D01*
X130872380Y-67471428D01*
X130872380Y-67280952D01*
X130920000Y-67185714D01*
X130967619Y-67138095D01*
X131062857Y-67090476D01*
X131300952Y-67090476D01*
X131396190Y-67138095D01*
X131443809Y-67185714D01*
X131491428Y-67280952D01*
X131491428Y-67471428D01*
X131443809Y-67566666D01*
X131396190Y-67614285D01*
X131300952Y-67661904D01*
X111677142Y-64044642D02*
X111724761Y-63997023D01*
X111772380Y-63854166D01*
X111772380Y-63758928D01*
X111724761Y-63616071D01*
X111629523Y-63520833D01*
X111534285Y-63473214D01*
X111343809Y-63425595D01*
X111200952Y-63425595D01*
X111010476Y-63473214D01*
X110915238Y-63520833D01*
X110820000Y-63616071D01*
X110772380Y-63758928D01*
X110772380Y-63854166D01*
X110820000Y-63997023D01*
X110867619Y-64044642D01*
X110867619Y-64425595D02*
X110820000Y-64473214D01*
X110772380Y-64568452D01*
X110772380Y-64806547D01*
X110820000Y-64901785D01*
X110867619Y-64949404D01*
X110962857Y-64997023D01*
X111058095Y-64997023D01*
X111200952Y-64949404D01*
X111772380Y-64377976D01*
X111772380Y-64997023D01*
X110772380Y-65330357D02*
X110772380Y-65997023D01*
X111772380Y-65568452D01*
X82277142Y-63857142D02*
X82324761Y-63809523D01*
X82372380Y-63666666D01*
X82372380Y-63571428D01*
X82324761Y-63428571D01*
X82229523Y-63333333D01*
X82134285Y-63285714D01*
X81943809Y-63238095D01*
X81800952Y-63238095D01*
X81610476Y-63285714D01*
X81515238Y-63333333D01*
X81420000Y-63428571D01*
X81372380Y-63571428D01*
X81372380Y-63666666D01*
X81420000Y-63809523D01*
X81467619Y-63857142D01*
X81467619Y-64238095D02*
X81420000Y-64285714D01*
X81372380Y-64380952D01*
X81372380Y-64619047D01*
X81420000Y-64714285D01*
X81467619Y-64761904D01*
X81562857Y-64809523D01*
X81658095Y-64809523D01*
X81800952Y-64761904D01*
X82372380Y-64190476D01*
X82372380Y-64809523D01*
X82372380Y-65761904D02*
X82372380Y-65190476D01*
X82372380Y-65476190D02*
X81372380Y-65476190D01*
X81515238Y-65380952D01*
X81610476Y-65285714D01*
X81658095Y-65190476D01*
X72077142Y-64357142D02*
X72124761Y-64309523D01*
X72172380Y-64166666D01*
X72172380Y-64071428D01*
X72124761Y-63928571D01*
X72029523Y-63833333D01*
X71934285Y-63785714D01*
X71743809Y-63738095D01*
X71600952Y-63738095D01*
X71410476Y-63785714D01*
X71315238Y-63833333D01*
X71220000Y-63928571D01*
X71172380Y-64071428D01*
X71172380Y-64166666D01*
X71220000Y-64309523D01*
X71267619Y-64357142D01*
X71267619Y-64738095D02*
X71220000Y-64785714D01*
X71172380Y-64880952D01*
X71172380Y-65119047D01*
X71220000Y-65214285D01*
X71267619Y-65261904D01*
X71362857Y-65309523D01*
X71458095Y-65309523D01*
X71600952Y-65261904D01*
X72172380Y-64690476D01*
X72172380Y-65309523D01*
X71172380Y-65928571D02*
X71172380Y-66023809D01*
X71220000Y-66119047D01*
X71267619Y-66166666D01*
X71362857Y-66214285D01*
X71553333Y-66261904D01*
X71791428Y-66261904D01*
X71981904Y-66214285D01*
X72077142Y-66166666D01*
X72124761Y-66119047D01*
X72172380Y-66023809D01*
X72172380Y-65928571D01*
X72124761Y-65833333D01*
X72077142Y-65785714D01*
X71981904Y-65738095D01*
X71791428Y-65690476D01*
X71553333Y-65690476D01*
X71362857Y-65738095D01*
X71267619Y-65785714D01*
X71220000Y-65833333D01*
X71172380Y-65928571D01*
X62377142Y-66057142D02*
X62424761Y-66009523D01*
X62472380Y-65866666D01*
X62472380Y-65771428D01*
X62424761Y-65628571D01*
X62329523Y-65533333D01*
X62234285Y-65485714D01*
X62043809Y-65438095D01*
X61900952Y-65438095D01*
X61710476Y-65485714D01*
X61615238Y-65533333D01*
X61520000Y-65628571D01*
X61472380Y-65771428D01*
X61472380Y-65866666D01*
X61520000Y-66009523D01*
X61567619Y-66057142D01*
X62472380Y-67009523D02*
X62472380Y-66438095D01*
X62472380Y-66723809D02*
X61472380Y-66723809D01*
X61615238Y-66628571D01*
X61710476Y-66533333D01*
X61758095Y-66438095D01*
X62472380Y-67485714D02*
X62472380Y-67676190D01*
X62424761Y-67771428D01*
X62377142Y-67819047D01*
X62234285Y-67914285D01*
X62043809Y-67961904D01*
X61662857Y-67961904D01*
X61567619Y-67914285D01*
X61520000Y-67866666D01*
X61472380Y-67771428D01*
X61472380Y-67580952D01*
X61520000Y-67485714D01*
X61567619Y-67438095D01*
X61662857Y-67390476D01*
X61900952Y-67390476D01*
X61996190Y-67438095D01*
X62043809Y-67485714D01*
X62091428Y-67580952D01*
X62091428Y-67771428D01*
X62043809Y-67866666D01*
X61996190Y-67914285D01*
X61900952Y-67961904D01*
X100837904Y-100298380D02*
X100837904Y-101107904D01*
X100790285Y-101203142D01*
X100742666Y-101250761D01*
X100647428Y-101298380D01*
X100456952Y-101298380D01*
X100361714Y-101250761D01*
X100314095Y-101203142D01*
X100266476Y-101107904D01*
X100266476Y-100298380D01*
X99837904Y-100393619D02*
X99790285Y-100346000D01*
X99695047Y-100298380D01*
X99456952Y-100298380D01*
X99361714Y-100346000D01*
X99314095Y-100393619D01*
X99266476Y-100488857D01*
X99266476Y-100584095D01*
X99314095Y-100726952D01*
X99885523Y-101298380D01*
X99266476Y-101298380D01*
X58848380Y-72342666D02*
X59562666Y-72342666D01*
X59705523Y-72295047D01*
X59800761Y-72199809D01*
X59848380Y-72056952D01*
X59848380Y-71961714D01*
X59848380Y-73342666D02*
X59848380Y-72771238D01*
X59848380Y-73056952D02*
X58848380Y-73056952D01*
X58991238Y-72961714D01*
X59086476Y-72866476D01*
X59134095Y-72771238D01*
X139827380Y-89122666D02*
X140541666Y-89122666D01*
X140684523Y-89075047D01*
X140779761Y-88979809D01*
X140827380Y-88836952D01*
X140827380Y-88741714D01*
X139922619Y-89551238D02*
X139875000Y-89598857D01*
X139827380Y-89694095D01*
X139827380Y-89932190D01*
X139875000Y-90027428D01*
X139922619Y-90075047D01*
X140017857Y-90122666D01*
X140113095Y-90122666D01*
X140255952Y-90075047D01*
X140827380Y-89503619D01*
X140827380Y-90122666D01*
X124205904Y-127468380D02*
X124205904Y-128277904D01*
X124158285Y-128373142D01*
X124110666Y-128420761D01*
X124015428Y-128468380D01*
X123824952Y-128468380D01*
X123729714Y-128420761D01*
X123682095Y-128373142D01*
X123634476Y-128277904D01*
X123634476Y-127468380D01*
X123015428Y-127896952D02*
X123110666Y-127849333D01*
X123158285Y-127801714D01*
X123205904Y-127706476D01*
X123205904Y-127658857D01*
X123158285Y-127563619D01*
X123110666Y-127516000D01*
X123015428Y-127468380D01*
X122824952Y-127468380D01*
X122729714Y-127516000D01*
X122682095Y-127563619D01*
X122634476Y-127658857D01*
X122634476Y-127706476D01*
X122682095Y-127801714D01*
X122729714Y-127849333D01*
X122824952Y-127896952D01*
X123015428Y-127896952D01*
X123110666Y-127944571D01*
X123158285Y-127992190D01*
X123205904Y-128087428D01*
X123205904Y-128277904D01*
X123158285Y-128373142D01*
X123110666Y-128420761D01*
X123015428Y-128468380D01*
X122824952Y-128468380D01*
X122729714Y-128420761D01*
X122682095Y-128373142D01*
X122634476Y-128277904D01*
X122634476Y-128087428D01*
X122682095Y-127992190D01*
X122729714Y-127944571D01*
X122824952Y-127896952D01*
X97250095Y-127214380D02*
X97250095Y-128023904D01*
X97202476Y-128119142D01*
X97154857Y-128166761D01*
X97059619Y-128214380D01*
X96869142Y-128214380D01*
X96773904Y-128166761D01*
X96726285Y-128119142D01*
X96678666Y-128023904D01*
X96678666Y-127214380D01*
X95678666Y-128214380D02*
X96250095Y-128214380D01*
X95964380Y-128214380D02*
X95964380Y-127214380D01*
X96059619Y-127357238D01*
X96154857Y-127452476D01*
X96250095Y-127500095D01*
X95059619Y-127214380D02*
X94964380Y-127214380D01*
X94869142Y-127262000D01*
X94821523Y-127309619D01*
X94773904Y-127404857D01*
X94726285Y-127595333D01*
X94726285Y-127833428D01*
X94773904Y-128023904D01*
X94821523Y-128119142D01*
X94869142Y-128166761D01*
X94964380Y-128214380D01*
X95059619Y-128214380D01*
X95154857Y-128166761D01*
X95202476Y-128119142D01*
X95250095Y-128023904D01*
X95297714Y-127833428D01*
X95297714Y-127595333D01*
X95250095Y-127404857D01*
X95202476Y-127309619D01*
X95154857Y-127262000D01*
X95059619Y-127214380D01*
X57222380Y-112022833D02*
X56746190Y-111689500D01*
X57222380Y-111451404D02*
X56222380Y-111451404D01*
X56222380Y-111832357D01*
X56270000Y-111927595D01*
X56317619Y-111975214D01*
X56412857Y-112022833D01*
X56555714Y-112022833D01*
X56650952Y-111975214D01*
X56698571Y-111927595D01*
X56746190Y-111832357D01*
X56746190Y-111451404D01*
X57222380Y-112975214D02*
X57222380Y-112403785D01*
X57222380Y-112689500D02*
X56222380Y-112689500D01*
X56365238Y-112594261D01*
X56460476Y-112499023D01*
X56508095Y-112403785D01*
X57222380Y-132596833D02*
X56746190Y-132263500D01*
X57222380Y-132025404D02*
X56222380Y-132025404D01*
X56222380Y-132406357D01*
X56270000Y-132501595D01*
X56317619Y-132549214D01*
X56412857Y-132596833D01*
X56555714Y-132596833D01*
X56650952Y-132549214D01*
X56698571Y-132501595D01*
X56746190Y-132406357D01*
X56746190Y-132025404D01*
X56317619Y-132977785D02*
X56270000Y-133025404D01*
X56222380Y-133120642D01*
X56222380Y-133358738D01*
X56270000Y-133453976D01*
X56317619Y-133501595D01*
X56412857Y-133549214D01*
X56508095Y-133549214D01*
X56650952Y-133501595D01*
X57222380Y-132930166D01*
X57222380Y-133549214D01*
X144090380Y-111925833D02*
X143614190Y-111592500D01*
X144090380Y-111354404D02*
X143090380Y-111354404D01*
X143090380Y-111735357D01*
X143138000Y-111830595D01*
X143185619Y-111878214D01*
X143280857Y-111925833D01*
X143423714Y-111925833D01*
X143518952Y-111878214D01*
X143566571Y-111830595D01*
X143614190Y-111735357D01*
X143614190Y-111354404D01*
X143423714Y-112782976D02*
X144090380Y-112782976D01*
X143042761Y-112544880D02*
X143757047Y-112306785D01*
X143757047Y-112925833D01*
X88082380Y-81523142D02*
X87606190Y-81189809D01*
X88082380Y-80951714D02*
X87082380Y-80951714D01*
X87082380Y-81332666D01*
X87130000Y-81427904D01*
X87177619Y-81475523D01*
X87272857Y-81523142D01*
X87415714Y-81523142D01*
X87510952Y-81475523D01*
X87558571Y-81427904D01*
X87606190Y-81332666D01*
X87606190Y-80951714D01*
X87082380Y-81856476D02*
X87082380Y-82475523D01*
X87463333Y-82142190D01*
X87463333Y-82285047D01*
X87510952Y-82380285D01*
X87558571Y-82427904D01*
X87653809Y-82475523D01*
X87891904Y-82475523D01*
X87987142Y-82427904D01*
X88034761Y-82380285D01*
X88082380Y-82285047D01*
X88082380Y-81999333D01*
X88034761Y-81904095D01*
X87987142Y-81856476D01*
X87082380Y-83094571D02*
X87082380Y-83189809D01*
X87130000Y-83285047D01*
X87177619Y-83332666D01*
X87272857Y-83380285D01*
X87463333Y-83427904D01*
X87701428Y-83427904D01*
X87891904Y-83380285D01*
X87987142Y-83332666D01*
X88034761Y-83285047D01*
X88082380Y-83189809D01*
X88082380Y-83094571D01*
X88034761Y-82999333D01*
X87987142Y-82951714D01*
X87891904Y-82904095D01*
X87701428Y-82856476D01*
X87463333Y-82856476D01*
X87272857Y-82904095D01*
X87177619Y-82951714D01*
X87130000Y-82999333D01*
X87082380Y-83094571D01*
X125124380Y-81523142D02*
X124648190Y-81189809D01*
X125124380Y-80951714D02*
X124124380Y-80951714D01*
X124124380Y-81332666D01*
X124172000Y-81427904D01*
X124219619Y-81475523D01*
X124314857Y-81523142D01*
X124457714Y-81523142D01*
X124552952Y-81475523D01*
X124600571Y-81427904D01*
X124648190Y-81332666D01*
X124648190Y-80951714D01*
X124124380Y-81856476D02*
X124124380Y-82475523D01*
X124505333Y-82142190D01*
X124505333Y-82285047D01*
X124552952Y-82380285D01*
X124600571Y-82427904D01*
X124695809Y-82475523D01*
X124933904Y-82475523D01*
X125029142Y-82427904D01*
X125076761Y-82380285D01*
X125124380Y-82285047D01*
X125124380Y-81999333D01*
X125076761Y-81904095D01*
X125029142Y-81856476D01*
X125124380Y-83427904D02*
X125124380Y-82856476D01*
X125124380Y-83142190D02*
X124124380Y-83142190D01*
X124267238Y-83046952D01*
X124362476Y-82951714D01*
X124410095Y-82856476D01*
X65790857Y-102772380D02*
X66124190Y-102296190D01*
X66362285Y-102772380D02*
X66362285Y-101772380D01*
X65981333Y-101772380D01*
X65886095Y-101820000D01*
X65838476Y-101867619D01*
X65790857Y-101962857D01*
X65790857Y-102105714D01*
X65838476Y-102200952D01*
X65886095Y-102248571D01*
X65981333Y-102296190D01*
X66362285Y-102296190D01*
X65457523Y-101772380D02*
X64838476Y-101772380D01*
X65171809Y-102153333D01*
X65028952Y-102153333D01*
X64933714Y-102200952D01*
X64886095Y-102248571D01*
X64838476Y-102343809D01*
X64838476Y-102581904D01*
X64886095Y-102677142D01*
X64933714Y-102724761D01*
X65028952Y-102772380D01*
X65314666Y-102772380D01*
X65409904Y-102724761D01*
X65457523Y-102677142D01*
X64457523Y-101867619D02*
X64409904Y-101820000D01*
X64314666Y-101772380D01*
X64076571Y-101772380D01*
X63981333Y-101820000D01*
X63933714Y-101867619D01*
X63886095Y-101962857D01*
X63886095Y-102058095D01*
X63933714Y-102200952D01*
X64505142Y-102772380D01*
X63886095Y-102772380D01*
X134624857Y-103026380D02*
X134958190Y-102550190D01*
X135196285Y-103026380D02*
X135196285Y-102026380D01*
X134815333Y-102026380D01*
X134720095Y-102074000D01*
X134672476Y-102121619D01*
X134624857Y-102216857D01*
X134624857Y-102359714D01*
X134672476Y-102454952D01*
X134720095Y-102502571D01*
X134815333Y-102550190D01*
X135196285Y-102550190D01*
X134291523Y-102026380D02*
X133672476Y-102026380D01*
X134005809Y-102407333D01*
X133862952Y-102407333D01*
X133767714Y-102454952D01*
X133720095Y-102502571D01*
X133672476Y-102597809D01*
X133672476Y-102835904D01*
X133720095Y-102931142D01*
X133767714Y-102978761D01*
X133862952Y-103026380D01*
X134148666Y-103026380D01*
X134243904Y-102978761D01*
X134291523Y-102931142D01*
X133339142Y-102026380D02*
X132720095Y-102026380D01*
X133053428Y-102407333D01*
X132910571Y-102407333D01*
X132815333Y-102454952D01*
X132767714Y-102502571D01*
X132720095Y-102597809D01*
X132720095Y-102835904D01*
X132767714Y-102931142D01*
X132815333Y-102978761D01*
X132910571Y-103026380D01*
X133196285Y-103026380D01*
X133291523Y-102978761D01*
X133339142Y-102931142D01*
X112772380Y-122657142D02*
X112296190Y-122323809D01*
X112772380Y-122085714D02*
X111772380Y-122085714D01*
X111772380Y-122466666D01*
X111820000Y-122561904D01*
X111867619Y-122609523D01*
X111962857Y-122657142D01*
X112105714Y-122657142D01*
X112200952Y-122609523D01*
X112248571Y-122561904D01*
X112296190Y-122466666D01*
X112296190Y-122085714D01*
X111772380Y-122990476D02*
X111772380Y-123609523D01*
X112153333Y-123276190D01*
X112153333Y-123419047D01*
X112200952Y-123514285D01*
X112248571Y-123561904D01*
X112343809Y-123609523D01*
X112581904Y-123609523D01*
X112677142Y-123561904D01*
X112724761Y-123514285D01*
X112772380Y-123419047D01*
X112772380Y-123133333D01*
X112724761Y-123038095D01*
X112677142Y-122990476D01*
X111772380Y-124514285D02*
X111772380Y-124038095D01*
X112248571Y-123990476D01*
X112200952Y-124038095D01*
X112153333Y-124133333D01*
X112153333Y-124371428D01*
X112200952Y-124466666D01*
X112248571Y-124514285D01*
X112343809Y-124561904D01*
X112581904Y-124561904D01*
X112677142Y-124514285D01*
X112724761Y-124466666D01*
X112772380Y-124371428D01*
X112772380Y-124133333D01*
X112724761Y-124038095D01*
X112677142Y-123990476D01*
X125061142Y-75007333D02*
X125108761Y-74959714D01*
X125156380Y-74816857D01*
X125156380Y-74721619D01*
X125108761Y-74578761D01*
X125013523Y-74483523D01*
X124918285Y-74435904D01*
X124727809Y-74388285D01*
X124584952Y-74388285D01*
X124394476Y-74435904D01*
X124299238Y-74483523D01*
X124204000Y-74578761D01*
X124156380Y-74721619D01*
X124156380Y-74816857D01*
X124204000Y-74959714D01*
X124251619Y-75007333D01*
X124156380Y-75340666D02*
X124156380Y-76007333D01*
X125156380Y-75578761D01*
X90517142Y-74785142D02*
X90564761Y-74737523D01*
X90612380Y-74594666D01*
X90612380Y-74499428D01*
X90564761Y-74356571D01*
X90469523Y-74261333D01*
X90374285Y-74213714D01*
X90183809Y-74166095D01*
X90040952Y-74166095D01*
X89850476Y-74213714D01*
X89755238Y-74261333D01*
X89660000Y-74356571D01*
X89612380Y-74499428D01*
X89612380Y-74594666D01*
X89660000Y-74737523D01*
X89707619Y-74785142D01*
X90612380Y-75737523D02*
X90612380Y-75166095D01*
X90612380Y-75451809D02*
X89612380Y-75451809D01*
X89755238Y-75356571D01*
X89850476Y-75261333D01*
X89898095Y-75166095D01*
X89612380Y-76356571D02*
X89612380Y-76451809D01*
X89660000Y-76547047D01*
X89707619Y-76594666D01*
X89802857Y-76642285D01*
X89993333Y-76689904D01*
X90231428Y-76689904D01*
X90421904Y-76642285D01*
X90517142Y-76594666D01*
X90564761Y-76547047D01*
X90612380Y-76451809D01*
X90612380Y-76356571D01*
X90564761Y-76261333D01*
X90517142Y-76213714D01*
X90421904Y-76166095D01*
X90231428Y-76118476D01*
X89993333Y-76118476D01*
X89802857Y-76166095D01*
X89707619Y-76213714D01*
X89660000Y-76261333D01*
X89612380Y-76356571D01*
X85637142Y-111256642D02*
X85684761Y-111209023D01*
X85732380Y-111066166D01*
X85732380Y-110970928D01*
X85684761Y-110828071D01*
X85589523Y-110732833D01*
X85494285Y-110685214D01*
X85303809Y-110637595D01*
X85160952Y-110637595D01*
X84970476Y-110685214D01*
X84875238Y-110732833D01*
X84780000Y-110828071D01*
X84732380Y-110970928D01*
X84732380Y-111066166D01*
X84780000Y-111209023D01*
X84827619Y-111256642D01*
X85732380Y-112209023D02*
X85732380Y-111637595D01*
X85732380Y-111923309D02*
X84732380Y-111923309D01*
X84875238Y-111828071D01*
X84970476Y-111732833D01*
X85018095Y-111637595D01*
X84732380Y-112542357D02*
X84732380Y-113161404D01*
X85113333Y-112828071D01*
X85113333Y-112970928D01*
X85160952Y-113066166D01*
X85208571Y-113113785D01*
X85303809Y-113161404D01*
X85541904Y-113161404D01*
X85637142Y-113113785D01*
X85684761Y-113066166D01*
X85732380Y-112970928D01*
X85732380Y-112685214D01*
X85684761Y-112589976D01*
X85637142Y-112542357D01*
X85637142Y-122153642D02*
X85684761Y-122106023D01*
X85732380Y-121963166D01*
X85732380Y-121867928D01*
X85684761Y-121725071D01*
X85589523Y-121629833D01*
X85494285Y-121582214D01*
X85303809Y-121534595D01*
X85160952Y-121534595D01*
X84970476Y-121582214D01*
X84875238Y-121629833D01*
X84780000Y-121725071D01*
X84732380Y-121867928D01*
X84732380Y-121963166D01*
X84780000Y-122106023D01*
X84827619Y-122153642D01*
X85732380Y-123106023D02*
X85732380Y-122534595D01*
X85732380Y-122820309D02*
X84732380Y-122820309D01*
X84875238Y-122725071D01*
X84970476Y-122629833D01*
X85018095Y-122534595D01*
X85065714Y-123963166D02*
X85732380Y-123963166D01*
X84684761Y-123725071D02*
X85399047Y-123486976D01*
X85399047Y-124106023D01*
X122467142Y-122178642D02*
X122514761Y-122131023D01*
X122562380Y-121988166D01*
X122562380Y-121892928D01*
X122514761Y-121750071D01*
X122419523Y-121654833D01*
X122324285Y-121607214D01*
X122133809Y-121559595D01*
X121990952Y-121559595D01*
X121800476Y-121607214D01*
X121705238Y-121654833D01*
X121610000Y-121750071D01*
X121562380Y-121892928D01*
X121562380Y-121988166D01*
X121610000Y-122131023D01*
X121657619Y-122178642D01*
X122562380Y-123131023D02*
X122562380Y-122559595D01*
X122562380Y-122845309D02*
X121562380Y-122845309D01*
X121705238Y-122750071D01*
X121800476Y-122654833D01*
X121848095Y-122559595D01*
X121562380Y-123464357D02*
X121562380Y-124131023D01*
X122562380Y-123702452D01*
X122467142Y-111256642D02*
X122514761Y-111209023D01*
X122562380Y-111066166D01*
X122562380Y-110970928D01*
X122514761Y-110828071D01*
X122419523Y-110732833D01*
X122324285Y-110685214D01*
X122133809Y-110637595D01*
X121990952Y-110637595D01*
X121800476Y-110685214D01*
X121705238Y-110732833D01*
X121610000Y-110828071D01*
X121562380Y-110970928D01*
X121562380Y-111066166D01*
X121610000Y-111209023D01*
X121657619Y-111256642D01*
X122562380Y-112209023D02*
X122562380Y-111637595D01*
X122562380Y-111923309D02*
X121562380Y-111923309D01*
X121705238Y-111828071D01*
X121800476Y-111732833D01*
X121848095Y-111637595D01*
X121990952Y-112780452D02*
X121943333Y-112685214D01*
X121895714Y-112637595D01*
X121800476Y-112589976D01*
X121752857Y-112589976D01*
X121657619Y-112637595D01*
X121610000Y-112685214D01*
X121562380Y-112780452D01*
X121562380Y-112970928D01*
X121610000Y-113066166D01*
X121657619Y-113113785D01*
X121752857Y-113161404D01*
X121800476Y-113161404D01*
X121895714Y-113113785D01*
X121943333Y-113066166D01*
X121990952Y-112970928D01*
X121990952Y-112780452D01*
X122038571Y-112685214D01*
X122086190Y-112637595D01*
X122181428Y-112589976D01*
X122371904Y-112589976D01*
X122467142Y-112637595D01*
X122514761Y-112685214D01*
X122562380Y-112780452D01*
X122562380Y-112970928D01*
X122514761Y-113066166D01*
X122467142Y-113113785D01*
X122371904Y-113161404D01*
X122181428Y-113161404D01*
X122086190Y-113113785D01*
X122038571Y-113066166D01*
X121990952Y-112970928D01*
X94093142Y-109107142D02*
X94140761Y-109059523D01*
X94188380Y-108916666D01*
X94188380Y-108821428D01*
X94140761Y-108678571D01*
X94045523Y-108583333D01*
X93950285Y-108535714D01*
X93759809Y-108488095D01*
X93616952Y-108488095D01*
X93426476Y-108535714D01*
X93331238Y-108583333D01*
X93236000Y-108678571D01*
X93188380Y-108821428D01*
X93188380Y-108916666D01*
X93236000Y-109059523D01*
X93283619Y-109107142D01*
X93283619Y-109488095D02*
X93236000Y-109535714D01*
X93188380Y-109630952D01*
X93188380Y-109869047D01*
X93236000Y-109964285D01*
X93283619Y-110011904D01*
X93378857Y-110059523D01*
X93474095Y-110059523D01*
X93616952Y-110011904D01*
X94188380Y-109440476D01*
X94188380Y-110059523D01*
X93283619Y-110440476D02*
X93236000Y-110488095D01*
X93188380Y-110583333D01*
X93188380Y-110821428D01*
X93236000Y-110916666D01*
X93283619Y-110964285D01*
X93378857Y-111011904D01*
X93474095Y-111011904D01*
X93616952Y-110964285D01*
X94188380Y-110392857D01*
X94188380Y-111011904D01*
X105788857Y-104741142D02*
X105836476Y-104788761D01*
X105979333Y-104836380D01*
X106074571Y-104836380D01*
X106217428Y-104788761D01*
X106312666Y-104693523D01*
X106360285Y-104598285D01*
X106407904Y-104407809D01*
X106407904Y-104264952D01*
X106360285Y-104074476D01*
X106312666Y-103979238D01*
X106217428Y-103884000D01*
X106074571Y-103836380D01*
X105979333Y-103836380D01*
X105836476Y-103884000D01*
X105788857Y-103931619D01*
X105407904Y-103931619D02*
X105360285Y-103884000D01*
X105265047Y-103836380D01*
X105026952Y-103836380D01*
X104931714Y-103884000D01*
X104884095Y-103931619D01*
X104836476Y-104026857D01*
X104836476Y-104122095D01*
X104884095Y-104264952D01*
X105455523Y-104836380D01*
X104836476Y-104836380D01*
X103979333Y-104169714D02*
X103979333Y-104836380D01*
X104217428Y-103788761D02*
X104455523Y-104503047D01*
X103836476Y-104503047D01*
X118508619Y-95757904D02*
X117699095Y-95757904D01*
X117603857Y-95710285D01*
X117556238Y-95662666D01*
X117508619Y-95567428D01*
X117508619Y-95376952D01*
X117556238Y-95281714D01*
X117603857Y-95234095D01*
X117699095Y-95186476D01*
X118508619Y-95186476D01*
X118175285Y-94281714D02*
X117508619Y-94281714D01*
X118556238Y-94519809D02*
X117841952Y-94757904D01*
X117841952Y-94138857D01*
X79666666Y-67671142D02*
X79714285Y-67718761D01*
X79857142Y-67766380D01*
X79952380Y-67766380D01*
X80095238Y-67718761D01*
X80190476Y-67623523D01*
X80238095Y-67528285D01*
X80285714Y-67337809D01*
X80285714Y-67194952D01*
X80238095Y-67004476D01*
X80190476Y-66909238D01*
X80095238Y-66814000D01*
X79952380Y-66766380D01*
X79857142Y-66766380D01*
X79714285Y-66814000D01*
X79666666Y-66861619D01*
X78761904Y-66766380D02*
X79238095Y-66766380D01*
X79285714Y-67242571D01*
X79238095Y-67194952D01*
X79142857Y-67147333D01*
X78904761Y-67147333D01*
X78809523Y-67194952D01*
X78761904Y-67242571D01*
X78714285Y-67337809D01*
X78714285Y-67575904D01*
X78761904Y-67671142D01*
X78809523Y-67718761D01*
X78904761Y-67766380D01*
X79142857Y-67766380D01*
X79238095Y-67718761D01*
X79285714Y-67671142D01*
X91543142Y-74220833D02*
X91590761Y-74173214D01*
X91638380Y-74030357D01*
X91638380Y-73935119D01*
X91590761Y-73792261D01*
X91495523Y-73697023D01*
X91400285Y-73649404D01*
X91209809Y-73601785D01*
X91066952Y-73601785D01*
X90876476Y-73649404D01*
X90781238Y-73697023D01*
X90686000Y-73792261D01*
X90638380Y-73935119D01*
X90638380Y-74030357D01*
X90686000Y-74173214D01*
X90733619Y-74220833D01*
X90638380Y-75077976D02*
X90638380Y-74887500D01*
X90686000Y-74792261D01*
X90733619Y-74744642D01*
X90876476Y-74649404D01*
X91066952Y-74601785D01*
X91447904Y-74601785D01*
X91543142Y-74649404D01*
X91590761Y-74697023D01*
X91638380Y-74792261D01*
X91638380Y-74982738D01*
X91590761Y-75077976D01*
X91543142Y-75125595D01*
X91447904Y-75173214D01*
X91209809Y-75173214D01*
X91114571Y-75125595D01*
X91066952Y-75077976D01*
X91019333Y-74982738D01*
X91019333Y-74792261D01*
X91066952Y-74697023D01*
X91114571Y-74649404D01*
X91209809Y-74601785D01*
X115179166Y-72143142D02*
X115226785Y-72190761D01*
X115369642Y-72238380D01*
X115464880Y-72238380D01*
X115607738Y-72190761D01*
X115702976Y-72095523D01*
X115750595Y-72000285D01*
X115798214Y-71809809D01*
X115798214Y-71666952D01*
X115750595Y-71476476D01*
X115702976Y-71381238D01*
X115607738Y-71286000D01*
X115464880Y-71238380D01*
X115369642Y-71238380D01*
X115226785Y-71286000D01*
X115179166Y-71333619D01*
X114607738Y-71666952D02*
X114702976Y-71619333D01*
X114750595Y-71571714D01*
X114798214Y-71476476D01*
X114798214Y-71428857D01*
X114750595Y-71333619D01*
X114702976Y-71286000D01*
X114607738Y-71238380D01*
X114417261Y-71238380D01*
X114322023Y-71286000D01*
X114274404Y-71333619D01*
X114226785Y-71428857D01*
X114226785Y-71476476D01*
X114274404Y-71571714D01*
X114322023Y-71619333D01*
X114417261Y-71666952D01*
X114607738Y-71666952D01*
X114702976Y-71714571D01*
X114750595Y-71762190D01*
X114798214Y-71857428D01*
X114798214Y-72047904D01*
X114750595Y-72143142D01*
X114702976Y-72190761D01*
X114607738Y-72238380D01*
X114417261Y-72238380D01*
X114322023Y-72190761D01*
X114274404Y-72143142D01*
X114226785Y-72047904D01*
X114226785Y-71857428D01*
X114274404Y-71762190D01*
X114322023Y-71714571D01*
X114417261Y-71666952D01*
X122277142Y-104044642D02*
X122324761Y-103997023D01*
X122372380Y-103854166D01*
X122372380Y-103758928D01*
X122324761Y-103616071D01*
X122229523Y-103520833D01*
X122134285Y-103473214D01*
X121943809Y-103425595D01*
X121800952Y-103425595D01*
X121610476Y-103473214D01*
X121515238Y-103520833D01*
X121420000Y-103616071D01*
X121372380Y-103758928D01*
X121372380Y-103854166D01*
X121420000Y-103997023D01*
X121467619Y-104044642D01*
X122372380Y-104997023D02*
X122372380Y-104425595D01*
X122372380Y-104711309D02*
X121372380Y-104711309D01*
X121515238Y-104616071D01*
X121610476Y-104520833D01*
X121658095Y-104425595D01*
X121372380Y-105901785D02*
X121372380Y-105425595D01*
X121848571Y-105377976D01*
X121800952Y-105425595D01*
X121753333Y-105520833D01*
X121753333Y-105758928D01*
X121800952Y-105854166D01*
X121848571Y-105901785D01*
X121943809Y-105949404D01*
X122181904Y-105949404D01*
X122277142Y-105901785D01*
X122324761Y-105854166D01*
X122372380Y-105758928D01*
X122372380Y-105520833D01*
X122324761Y-105425595D01*
X122277142Y-105377976D01*
X119137142Y-104057142D02*
X119184761Y-104009523D01*
X119232380Y-103866666D01*
X119232380Y-103771428D01*
X119184761Y-103628571D01*
X119089523Y-103533333D01*
X118994285Y-103485714D01*
X118803809Y-103438095D01*
X118660952Y-103438095D01*
X118470476Y-103485714D01*
X118375238Y-103533333D01*
X118280000Y-103628571D01*
X118232380Y-103771428D01*
X118232380Y-103866666D01*
X118280000Y-104009523D01*
X118327619Y-104057142D01*
X119232380Y-105009523D02*
X119232380Y-104438095D01*
X119232380Y-104723809D02*
X118232380Y-104723809D01*
X118375238Y-104628571D01*
X118470476Y-104533333D01*
X118518095Y-104438095D01*
X118232380Y-105866666D02*
X118232380Y-105676190D01*
X118280000Y-105580952D01*
X118327619Y-105533333D01*
X118470476Y-105438095D01*
X118660952Y-105390476D01*
X119041904Y-105390476D01*
X119137142Y-105438095D01*
X119184761Y-105485714D01*
X119232380Y-105580952D01*
X119232380Y-105771428D01*
X119184761Y-105866666D01*
X119137142Y-105914285D01*
X119041904Y-105961904D01*
X118803809Y-105961904D01*
X118708571Y-105914285D01*
X118660952Y-105866666D01*
X118613333Y-105771428D01*
X118613333Y-105580952D01*
X118660952Y-105485714D01*
X118708571Y-105438095D01*
X118803809Y-105390476D01*
X133707142Y-83685142D02*
X133754761Y-83637523D01*
X133802380Y-83494666D01*
X133802380Y-83399428D01*
X133754761Y-83256571D01*
X133659523Y-83161333D01*
X133564285Y-83113714D01*
X133373809Y-83066095D01*
X133230952Y-83066095D01*
X133040476Y-83113714D01*
X132945238Y-83161333D01*
X132850000Y-83256571D01*
X132802380Y-83399428D01*
X132802380Y-83494666D01*
X132850000Y-83637523D01*
X132897619Y-83685142D01*
X132802380Y-84018476D02*
X132802380Y-84637523D01*
X133183333Y-84304190D01*
X133183333Y-84447047D01*
X133230952Y-84542285D01*
X133278571Y-84589904D01*
X133373809Y-84637523D01*
X133611904Y-84637523D01*
X133707142Y-84589904D01*
X133754761Y-84542285D01*
X133802380Y-84447047D01*
X133802380Y-84161333D01*
X133754761Y-84066095D01*
X133707142Y-84018476D01*
X133135714Y-85494666D02*
X133802380Y-85494666D01*
X132754761Y-85256571D02*
X133469047Y-85018476D01*
X133469047Y-85637523D01*
X100213753Y-137855220D02*
X100213753Y-138569506D01*
X100261372Y-138712363D01*
X100356610Y-138807601D01*
X100499467Y-138855220D01*
X100594705Y-138855220D01*
X99832800Y-137855220D02*
X99213753Y-137855220D01*
X99547086Y-138236173D01*
X99404229Y-138236173D01*
X99308991Y-138283792D01*
X99261372Y-138331411D01*
X99213753Y-138426649D01*
X99213753Y-138664744D01*
X99261372Y-138759982D01*
X99308991Y-138807601D01*
X99404229Y-138855220D01*
X99689943Y-138855220D01*
X99785181Y-138807601D01*
X99832800Y-138759982D01*
X133707142Y-86987142D02*
X133754761Y-86939523D01*
X133802380Y-86796666D01*
X133802380Y-86701428D01*
X133754761Y-86558571D01*
X133659523Y-86463333D01*
X133564285Y-86415714D01*
X133373809Y-86368095D01*
X133230952Y-86368095D01*
X133040476Y-86415714D01*
X132945238Y-86463333D01*
X132850000Y-86558571D01*
X132802380Y-86701428D01*
X132802380Y-86796666D01*
X132850000Y-86939523D01*
X132897619Y-86987142D01*
X133135714Y-87844285D02*
X133802380Y-87844285D01*
X132754761Y-87606190D02*
X133469047Y-87368095D01*
X133469047Y-87987142D01*
X133230952Y-88510952D02*
X133183333Y-88415714D01*
X133135714Y-88368095D01*
X133040476Y-88320476D01*
X132992857Y-88320476D01*
X132897619Y-88368095D01*
X132850000Y-88415714D01*
X132802380Y-88510952D01*
X132802380Y-88701428D01*
X132850000Y-88796666D01*
X132897619Y-88844285D01*
X132992857Y-88891904D01*
X133040476Y-88891904D01*
X133135714Y-88844285D01*
X133183333Y-88796666D01*
X133230952Y-88701428D01*
X133230952Y-88510952D01*
X133278571Y-88415714D01*
X133326190Y-88368095D01*
X133421428Y-88320476D01*
X133611904Y-88320476D01*
X133707142Y-88368095D01*
X133754761Y-88415714D01*
X133802380Y-88510952D01*
X133802380Y-88701428D01*
X133754761Y-88796666D01*
X133707142Y-88844285D01*
X133611904Y-88891904D01*
X133421428Y-88891904D01*
X133326190Y-88844285D01*
X133278571Y-88796666D01*
X133230952Y-88701428D01*
X52433142Y-112064833D02*
X52480761Y-112017214D01*
X52528380Y-111874357D01*
X52528380Y-111779119D01*
X52480761Y-111636261D01*
X52385523Y-111541023D01*
X52290285Y-111493404D01*
X52099809Y-111445785D01*
X51956952Y-111445785D01*
X51766476Y-111493404D01*
X51671238Y-111541023D01*
X51576000Y-111636261D01*
X51528380Y-111779119D01*
X51528380Y-111874357D01*
X51576000Y-112017214D01*
X51623619Y-112064833D01*
X52528380Y-113017214D02*
X52528380Y-112445785D01*
X52528380Y-112731500D02*
X51528380Y-112731500D01*
X51671238Y-112636261D01*
X51766476Y-112541023D01*
X51814095Y-112445785D01*
X52433142Y-132711833D02*
X52480761Y-132664214D01*
X52528380Y-132521357D01*
X52528380Y-132426119D01*
X52480761Y-132283261D01*
X52385523Y-132188023D01*
X52290285Y-132140404D01*
X52099809Y-132092785D01*
X51956952Y-132092785D01*
X51766476Y-132140404D01*
X51671238Y-132188023D01*
X51576000Y-132283261D01*
X51528380Y-132426119D01*
X51528380Y-132521357D01*
X51576000Y-132664214D01*
X51623619Y-132711833D01*
X51623619Y-133092785D02*
X51576000Y-133140404D01*
X51528380Y-133235642D01*
X51528380Y-133473738D01*
X51576000Y-133568976D01*
X51623619Y-133616595D01*
X51718857Y-133664214D01*
X51814095Y-133664214D01*
X51956952Y-133616595D01*
X52528380Y-133045166D01*
X52528380Y-133664214D01*
X139555142Y-132638833D02*
X139602761Y-132591214D01*
X139650380Y-132448357D01*
X139650380Y-132353119D01*
X139602761Y-132210261D01*
X139507523Y-132115023D01*
X139412285Y-132067404D01*
X139221809Y-132019785D01*
X139078952Y-132019785D01*
X138888476Y-132067404D01*
X138793238Y-132115023D01*
X138698000Y-132210261D01*
X138650380Y-132353119D01*
X138650380Y-132448357D01*
X138698000Y-132591214D01*
X138745619Y-132638833D01*
X138650380Y-132972166D02*
X138650380Y-133591214D01*
X139031333Y-133257880D01*
X139031333Y-133400738D01*
X139078952Y-133495976D01*
X139126571Y-133543595D01*
X139221809Y-133591214D01*
X139459904Y-133591214D01*
X139555142Y-133543595D01*
X139602761Y-133495976D01*
X139650380Y-133400738D01*
X139650380Y-133115023D01*
X139602761Y-133019785D01*
X139555142Y-132972166D01*
X139301142Y-111810833D02*
X139348761Y-111763214D01*
X139396380Y-111620357D01*
X139396380Y-111525119D01*
X139348761Y-111382261D01*
X139253523Y-111287023D01*
X139158285Y-111239404D01*
X138967809Y-111191785D01*
X138824952Y-111191785D01*
X138634476Y-111239404D01*
X138539238Y-111287023D01*
X138444000Y-111382261D01*
X138396380Y-111525119D01*
X138396380Y-111620357D01*
X138444000Y-111763214D01*
X138491619Y-111810833D01*
X138729714Y-112667976D02*
X139396380Y-112667976D01*
X138348761Y-112429880D02*
X139063047Y-112191785D01*
X139063047Y-112810833D01*
X121796166Y-67673142D02*
X121843785Y-67720761D01*
X121986642Y-67768380D01*
X122081880Y-67768380D01*
X122224738Y-67720761D01*
X122319976Y-67625523D01*
X122367595Y-67530285D01*
X122415214Y-67339809D01*
X122415214Y-67196952D01*
X122367595Y-67006476D01*
X122319976Y-66911238D01*
X122224738Y-66816000D01*
X122081880Y-66768380D01*
X121986642Y-66768380D01*
X121843785Y-66816000D01*
X121796166Y-66863619D01*
X121319976Y-67768380D02*
X121129500Y-67768380D01*
X121034261Y-67720761D01*
X120986642Y-67673142D01*
X120891404Y-67530285D01*
X120843785Y-67339809D01*
X120843785Y-66958857D01*
X120891404Y-66863619D01*
X120939023Y-66816000D01*
X121034261Y-66768380D01*
X121224738Y-66768380D01*
X121319976Y-66816000D01*
X121367595Y-66863619D01*
X121415214Y-66958857D01*
X121415214Y-67196952D01*
X121367595Y-67292190D01*
X121319976Y-67339809D01*
X121224738Y-67387428D01*
X121034261Y-67387428D01*
X120939023Y-67339809D01*
X120891404Y-67292190D01*
X120843785Y-67196952D01*
X97888357Y-105265142D02*
X97935976Y-105312761D01*
X98078833Y-105360380D01*
X98174071Y-105360380D01*
X98316928Y-105312761D01*
X98412166Y-105217523D01*
X98459785Y-105122285D01*
X98507404Y-104931809D01*
X98507404Y-104788952D01*
X98459785Y-104598476D01*
X98412166Y-104503238D01*
X98316928Y-104408000D01*
X98174071Y-104360380D01*
X98078833Y-104360380D01*
X97935976Y-104408000D01*
X97888357Y-104455619D01*
X97507404Y-104455619D02*
X97459785Y-104408000D01*
X97364547Y-104360380D01*
X97126452Y-104360380D01*
X97031214Y-104408000D01*
X96983595Y-104455619D01*
X96935976Y-104550857D01*
X96935976Y-104646095D01*
X96983595Y-104788952D01*
X97555023Y-105360380D01*
X96935976Y-105360380D01*
X96602642Y-104360380D02*
X95983595Y-104360380D01*
X96316928Y-104741333D01*
X96174071Y-104741333D01*
X96078833Y-104788952D01*
X96031214Y-104836571D01*
X95983595Y-104931809D01*
X95983595Y-105169904D01*
X96031214Y-105265142D01*
X96078833Y-105312761D01*
X96174071Y-105360380D01*
X96459785Y-105360380D01*
X96555023Y-105312761D01*
X96602642Y-105265142D01*
X67159142Y-86733142D02*
X67206761Y-86685523D01*
X67254380Y-86542666D01*
X67254380Y-86447428D01*
X67206761Y-86304571D01*
X67111523Y-86209333D01*
X67016285Y-86161714D01*
X66825809Y-86114095D01*
X66682952Y-86114095D01*
X66492476Y-86161714D01*
X66397238Y-86209333D01*
X66302000Y-86304571D01*
X66254380Y-86447428D01*
X66254380Y-86542666D01*
X66302000Y-86685523D01*
X66349619Y-86733142D01*
X66254380Y-87066476D02*
X66254380Y-87685523D01*
X66635333Y-87352190D01*
X66635333Y-87495047D01*
X66682952Y-87590285D01*
X66730571Y-87637904D01*
X66825809Y-87685523D01*
X67063904Y-87685523D01*
X67159142Y-87637904D01*
X67206761Y-87590285D01*
X67254380Y-87495047D01*
X67254380Y-87209333D01*
X67206761Y-87114095D01*
X67159142Y-87066476D01*
X66254380Y-88304571D02*
X66254380Y-88399809D01*
X66302000Y-88495047D01*
X66349619Y-88542666D01*
X66444857Y-88590285D01*
X66635333Y-88637904D01*
X66873428Y-88637904D01*
X67063904Y-88590285D01*
X67159142Y-88542666D01*
X67206761Y-88495047D01*
X67254380Y-88399809D01*
X67254380Y-88304571D01*
X67206761Y-88209333D01*
X67159142Y-88161714D01*
X67063904Y-88114095D01*
X66873428Y-88066476D01*
X66635333Y-88066476D01*
X66444857Y-88114095D01*
X66349619Y-88161714D01*
X66302000Y-88209333D01*
X66254380Y-88304571D01*
X133707142Y-73779142D02*
X133754761Y-73731523D01*
X133802380Y-73588666D01*
X133802380Y-73493428D01*
X133754761Y-73350571D01*
X133659523Y-73255333D01*
X133564285Y-73207714D01*
X133373809Y-73160095D01*
X133230952Y-73160095D01*
X133040476Y-73207714D01*
X132945238Y-73255333D01*
X132850000Y-73350571D01*
X132802380Y-73493428D01*
X132802380Y-73588666D01*
X132850000Y-73731523D01*
X132897619Y-73779142D01*
X132802380Y-74112476D02*
X132802380Y-74731523D01*
X133183333Y-74398190D01*
X133183333Y-74541047D01*
X133230952Y-74636285D01*
X133278571Y-74683904D01*
X133373809Y-74731523D01*
X133611904Y-74731523D01*
X133707142Y-74683904D01*
X133754761Y-74636285D01*
X133802380Y-74541047D01*
X133802380Y-74255333D01*
X133754761Y-74160095D01*
X133707142Y-74112476D01*
X133802380Y-75683904D02*
X133802380Y-75112476D01*
X133802380Y-75398190D02*
X132802380Y-75398190D01*
X132945238Y-75302952D01*
X133040476Y-75207714D01*
X133088095Y-75112476D01*
X133707142Y-76827142D02*
X133754761Y-76779523D01*
X133802380Y-76636666D01*
X133802380Y-76541428D01*
X133754761Y-76398571D01*
X133659523Y-76303333D01*
X133564285Y-76255714D01*
X133373809Y-76208095D01*
X133230952Y-76208095D01*
X133040476Y-76255714D01*
X132945238Y-76303333D01*
X132850000Y-76398571D01*
X132802380Y-76541428D01*
X132802380Y-76636666D01*
X132850000Y-76779523D01*
X132897619Y-76827142D01*
X132802380Y-77160476D02*
X132802380Y-77779523D01*
X133183333Y-77446190D01*
X133183333Y-77589047D01*
X133230952Y-77684285D01*
X133278571Y-77731904D01*
X133373809Y-77779523D01*
X133611904Y-77779523D01*
X133707142Y-77731904D01*
X133754761Y-77684285D01*
X133802380Y-77589047D01*
X133802380Y-77303333D01*
X133754761Y-77208095D01*
X133707142Y-77160476D01*
X132897619Y-78160476D02*
X132850000Y-78208095D01*
X132802380Y-78303333D01*
X132802380Y-78541428D01*
X132850000Y-78636666D01*
X132897619Y-78684285D01*
X132992857Y-78731904D01*
X133088095Y-78731904D01*
X133230952Y-78684285D01*
X133802380Y-78112857D01*
X133802380Y-78731904D01*
X89257142Y-133215142D02*
X89304761Y-133167523D01*
X89352380Y-133024666D01*
X89352380Y-132929428D01*
X89304761Y-132786571D01*
X89209523Y-132691333D01*
X89114285Y-132643714D01*
X88923809Y-132596095D01*
X88780952Y-132596095D01*
X88590476Y-132643714D01*
X88495238Y-132691333D01*
X88400000Y-132786571D01*
X88352380Y-132929428D01*
X88352380Y-133024666D01*
X88400000Y-133167523D01*
X88447619Y-133215142D01*
X88352380Y-133548476D02*
X88352380Y-134167523D01*
X88733333Y-133834190D01*
X88733333Y-133977047D01*
X88780952Y-134072285D01*
X88828571Y-134119904D01*
X88923809Y-134167523D01*
X89161904Y-134167523D01*
X89257142Y-134119904D01*
X89304761Y-134072285D01*
X89352380Y-133977047D01*
X89352380Y-133691333D01*
X89304761Y-133596095D01*
X89257142Y-133548476D01*
X88352380Y-135024666D02*
X88352380Y-134834190D01*
X88400000Y-134738952D01*
X88447619Y-134691333D01*
X88590476Y-134596095D01*
X88780952Y-134548476D01*
X89161904Y-134548476D01*
X89257142Y-134596095D01*
X89304761Y-134643714D01*
X89352380Y-134738952D01*
X89352380Y-134929428D01*
X89304761Y-135024666D01*
X89257142Y-135072285D01*
X89161904Y-135119904D01*
X88923809Y-135119904D01*
X88828571Y-135072285D01*
X88780952Y-135024666D01*
X88733333Y-134929428D01*
X88733333Y-134738952D01*
X88780952Y-134643714D01*
X88828571Y-134596095D01*
X88923809Y-134548476D01*
X112885142Y-94643642D02*
X112932761Y-94596023D01*
X112980380Y-94453166D01*
X112980380Y-94357928D01*
X112932761Y-94215071D01*
X112837523Y-94119833D01*
X112742285Y-94072214D01*
X112551809Y-94024595D01*
X112408952Y-94024595D01*
X112218476Y-94072214D01*
X112123238Y-94119833D01*
X112028000Y-94215071D01*
X111980380Y-94357928D01*
X111980380Y-94453166D01*
X112028000Y-94596023D01*
X112075619Y-94643642D01*
X112313714Y-95500785D02*
X112980380Y-95500785D01*
X111932761Y-95262690D02*
X112647047Y-95024595D01*
X112647047Y-95643642D01*
X112980380Y-96548404D02*
X112980380Y-95976976D01*
X112980380Y-96262690D02*
X111980380Y-96262690D01*
X112123238Y-96167452D01*
X112218476Y-96072214D01*
X112266095Y-95976976D01*
X102719142Y-133215142D02*
X102766761Y-133167523D01*
X102814380Y-133024666D01*
X102814380Y-132929428D01*
X102766761Y-132786571D01*
X102671523Y-132691333D01*
X102576285Y-132643714D01*
X102385809Y-132596095D01*
X102242952Y-132596095D01*
X102052476Y-132643714D01*
X101957238Y-132691333D01*
X101862000Y-132786571D01*
X101814380Y-132929428D01*
X101814380Y-133024666D01*
X101862000Y-133167523D01*
X101909619Y-133215142D01*
X102147714Y-134072285D02*
X102814380Y-134072285D01*
X101766761Y-133834190D02*
X102481047Y-133596095D01*
X102481047Y-134215142D01*
X101909619Y-134548476D02*
X101862000Y-134596095D01*
X101814380Y-134691333D01*
X101814380Y-134929428D01*
X101862000Y-135024666D01*
X101909619Y-135072285D01*
X102004857Y-135119904D01*
X102100095Y-135119904D01*
X102242952Y-135072285D01*
X102814380Y-134500857D01*
X102814380Y-135119904D01*
X67159142Y-83431142D02*
X67206761Y-83383523D01*
X67254380Y-83240666D01*
X67254380Y-83145428D01*
X67206761Y-83002571D01*
X67111523Y-82907333D01*
X67016285Y-82859714D01*
X66825809Y-82812095D01*
X66682952Y-82812095D01*
X66492476Y-82859714D01*
X66397238Y-82907333D01*
X66302000Y-83002571D01*
X66254380Y-83145428D01*
X66254380Y-83240666D01*
X66302000Y-83383523D01*
X66349619Y-83431142D01*
X66587714Y-84288285D02*
X67254380Y-84288285D01*
X66206761Y-84050190D02*
X66921047Y-83812095D01*
X66921047Y-84431142D01*
X66254380Y-84716857D02*
X66254380Y-85335904D01*
X66635333Y-85002571D01*
X66635333Y-85145428D01*
X66682952Y-85240666D01*
X66730571Y-85288285D01*
X66825809Y-85335904D01*
X67063904Y-85335904D01*
X67159142Y-85288285D01*
X67206761Y-85240666D01*
X67254380Y-85145428D01*
X67254380Y-84859714D01*
X67206761Y-84764476D01*
X67159142Y-84716857D01*
X104237142Y-82705642D02*
X104284761Y-82658023D01*
X104332380Y-82515166D01*
X104332380Y-82419928D01*
X104284761Y-82277071D01*
X104189523Y-82181833D01*
X104094285Y-82134214D01*
X103903809Y-82086595D01*
X103760952Y-82086595D01*
X103570476Y-82134214D01*
X103475238Y-82181833D01*
X103380000Y-82277071D01*
X103332380Y-82419928D01*
X103332380Y-82515166D01*
X103380000Y-82658023D01*
X103427619Y-82705642D01*
X103665714Y-83562785D02*
X104332380Y-83562785D01*
X103284761Y-83324690D02*
X103999047Y-83086595D01*
X103999047Y-83705642D01*
X103665714Y-84515166D02*
X104332380Y-84515166D01*
X103284761Y-84277071D02*
X103999047Y-84038976D01*
X103999047Y-84658023D01*
X143328380Y-132684333D02*
X142852190Y-132351000D01*
X143328380Y-132112904D02*
X142328380Y-132112904D01*
X142328380Y-132493857D01*
X142376000Y-132589095D01*
X142423619Y-132636714D01*
X142518857Y-132684333D01*
X142661714Y-132684333D01*
X142756952Y-132636714D01*
X142804571Y-132589095D01*
X142852190Y-132493857D01*
X142852190Y-132112904D01*
X142328380Y-133017666D02*
X142328380Y-133636714D01*
X142709333Y-133303380D01*
X142709333Y-133446238D01*
X142756952Y-133541476D01*
X142804571Y-133589095D01*
X142899809Y-133636714D01*
X143137904Y-133636714D01*
X143233142Y-133589095D01*
X143280761Y-133541476D01*
X143328380Y-133446238D01*
X143328380Y-133160523D01*
X143280761Y-133065285D01*
X143233142Y-133017666D01*
X99665142Y-82705642D02*
X99712761Y-82658023D01*
X99760380Y-82515166D01*
X99760380Y-82419928D01*
X99712761Y-82277071D01*
X99617523Y-82181833D01*
X99522285Y-82134214D01*
X99331809Y-82086595D01*
X99188952Y-82086595D01*
X98998476Y-82134214D01*
X98903238Y-82181833D01*
X98808000Y-82277071D01*
X98760380Y-82419928D01*
X98760380Y-82515166D01*
X98808000Y-82658023D01*
X98855619Y-82705642D01*
X99093714Y-83562785D02*
X99760380Y-83562785D01*
X98712761Y-83324690D02*
X99427047Y-83086595D01*
X99427047Y-83705642D01*
X99760380Y-84134214D02*
X99760380Y-84324690D01*
X99712761Y-84419928D01*
X99665142Y-84467547D01*
X99522285Y-84562785D01*
X99331809Y-84610404D01*
X98950857Y-84610404D01*
X98855619Y-84562785D01*
X98808000Y-84515166D01*
X98760380Y-84419928D01*
X98760380Y-84229452D01*
X98808000Y-84134214D01*
X98855619Y-84086595D01*
X98950857Y-84038976D01*
X99188952Y-84038976D01*
X99284190Y-84086595D01*
X99331809Y-84134214D01*
X99379428Y-84229452D01*
X99379428Y-84419928D01*
X99331809Y-84515166D01*
X99284190Y-84562785D01*
X99188952Y-84610404D01*
X67159142Y-73525142D02*
X67206761Y-73477523D01*
X67254380Y-73334666D01*
X67254380Y-73239428D01*
X67206761Y-73096571D01*
X67111523Y-73001333D01*
X67016285Y-72953714D01*
X66825809Y-72906095D01*
X66682952Y-72906095D01*
X66492476Y-72953714D01*
X66397238Y-73001333D01*
X66302000Y-73096571D01*
X66254380Y-73239428D01*
X66254380Y-73334666D01*
X66302000Y-73477523D01*
X66349619Y-73525142D01*
X66254380Y-73858476D02*
X66254380Y-74477523D01*
X66635333Y-74144190D01*
X66635333Y-74287047D01*
X66682952Y-74382285D01*
X66730571Y-74429904D01*
X66825809Y-74477523D01*
X67063904Y-74477523D01*
X67159142Y-74429904D01*
X67206761Y-74382285D01*
X67254380Y-74287047D01*
X67254380Y-74001333D01*
X67206761Y-73906095D01*
X67159142Y-73858476D01*
X66254380Y-74810857D02*
X66254380Y-75477523D01*
X67254380Y-75048952D01*
M02*
