M48
; DRILL file {KiCad (5.1.5)-3} date 13.05.2020 22:14:14
; FORMAT={-:-/ absolute / inch / decimal}
; #@! TF.CreationDate,2020-05-13T22:14:14+03:00
; #@! TF.GenerationSoftware,Kicad,Pcbnew,(5.1.5)-3
; #@! TF.FileFunction,Plated,1,2,PTH
FMAT,2
INCH
T1C0.0157
T2C0.0394
%
G90
G05
T1
X2.2Y-4.56
X2.21Y-5.36
X2.24Y-2.74
X2.24Y-2.97
X2.24Y-3.04
X2.24Y-3.11
X2.24Y-3.18
X2.24Y-3.25
X2.24Y-3.33
X2.24Y-3.4
X2.37Y-3.06
X2.3754Y-3.3749
X2.38Y-4.48
X2.38Y-5.26
X2.44Y-2.83
X2.45Y-3.53
X2.5Y-5.2
X2.51Y-3.71
X2.5197Y-5.6535
X2.53Y-2.49
X2.62Y-4.18
X2.65Y-4.93
X2.675Y-3.325
X2.685Y-3.465
X2.7999Y-3.2001
X2.8Y-3.75
X2.8235Y-3.1685
X2.8315Y-3.78
X2.86Y-3.15
X2.86Y-3.82
X2.8885Y-3.24
X2.89Y-3.49
X2.91Y-2.42
X2.9171Y-3.28
X2.96Y-5.55
X3.07Y-3.9
X3.2Y-5.03
X3.2Y-5.33
X3.31Y-2.41
X3.42Y-4.38
X3.45Y-3.63
X3.46Y-3.68
X3.46Y-5.09
X3.6Y-3.16
X3.6Y-3.8
X3.6Y-5.65
X3.62Y-3.8571
X3.65Y-3.46
X3.6505Y-3.7695
X3.67Y-2.41
X3.679Y-3.741
X3.68Y-3.43
X3.7Y-5.65
X3.71Y-3.71
X3.71Y-3.97
X3.72Y-3.4
X3.73Y-3.33
X3.77Y-3.56
X3.79Y-5.14
X3.8Y-5.65
X3.8189Y-2.9685
X3.82Y-3.39
X3.83Y-3.97
X3.8629Y-3.6802
X3.8629Y-5.3963
X3.89Y-3.52
X3.8915Y-5.4272
X3.9Y-3.65
X3.9Y-5.65
X3.92Y-3.4
X3.92Y-5.46
X3.93Y-3.52
X3.93Y-3.68
X3.9585Y-3.64
X3.98Y-3.85
X4.0Y-2.87
X4.0Y-5.65
X4.01Y-3.775
X4.0272Y-4.0215
X4.03Y-3.96
X4.04Y-3.74
X4.0518Y-4.0522
X4.06Y-2.42
X4.0694Y-3.96
X4.09Y-3.34
X4.1Y-3.52
X4.1Y-5.65
X4.11Y-3.955
X4.19Y-3.29
X4.19Y-3.75
X4.2Y-5.65
X4.22Y-3.5185
X4.22Y-3.72
X4.2265Y-3.7815
X4.252Y-3.5471
X4.3Y-5.65
X4.33Y-4.21
X4.3701Y-2.8858
X4.42Y-3.65
X4.42Y-3.69
X4.44Y-4.57
X4.47Y-2.41
X4.59Y-5.57
X4.65Y-5.06
X4.65Y-5.7
X4.71Y-3.69
X4.71Y-3.99
X4.76Y-3.5471
X4.76Y-3.69
X4.85Y-2.41
X4.87Y-3.5185
X4.87Y-3.69
X4.9646Y-5.2835
X5.0Y-2.75
X5.04Y-3.9
X5.09Y-3.16
X5.11Y-3.56
X5.13Y-3.18
X5.17Y-3.19
X5.1702Y-3.3802
X5.18Y-3.955
X5.22Y-3.05
X5.22Y-3.21
X5.248Y-3.7795
X5.2485Y-3.1138
X5.26Y-2.49
X5.28Y-4.81
X5.31Y-4.18
X5.355Y-3.05
X5.38Y-4.52
X5.43Y-2.83
X5.43Y-3.62
X5.4764Y-4.9409
X5.49Y-3.32
X5.5Y-3.01
X5.63Y-3.0
X5.63Y-3.1
X5.63Y-3.2
X5.63Y-3.3
X5.63Y-3.4
X5.76Y-4.54
X5.8Y-5.33
T2
X5.748Y-3.7126
X5.748Y-3.8126
X5.748Y-3.9126
X5.748Y-4.0126
T2
G00X2.1377Y-3.9894
M15
G01X2.1377Y-3.9106
M16
G05
G00X2.2952Y-3.765
M15
G01X2.2165Y-3.765
M16
G05
G00X2.3818Y-3.9992
M15
G01X2.3818Y-3.9008
M16
G05
T0
M30
