%TF.GenerationSoftware,KiCad,Pcbnew,(5.1.5)-3*%
%TF.CreationDate,2020-05-13T22:36:07+03:00*%
%TF.ProjectId,dash-board,64617368-2d62-46f6-9172-642e6b696361,rev?*%
%TF.SameCoordinates,Original*%
%TF.FileFunction,Soldermask,Top*%
%TF.FilePolarity,Negative*%
%FSLAX46Y46*%
G04 Gerber Fmt 4.6, Leading zero omitted, Abs format (unit mm)*
G04 Created by KiCad (PCBNEW (5.1.5)-3) date 2020-05-13 22:36:07*
%MOMM*%
%LPD*%
G04 APERTURE LIST*
%ADD10C,0.100000*%
G04 APERTURE END LIST*
D10*
G36*
X145267000Y-138071000D02*
G01*
X144165000Y-138071000D01*
X144165000Y-134769000D01*
X145267000Y-134769000D01*
X145267000Y-138071000D01*
G37*
G36*
X54145000Y-138071000D02*
G01*
X53043000Y-138071000D01*
X53043000Y-134769000D01*
X54145000Y-134769000D01*
X54145000Y-138071000D01*
G37*
G36*
X58145000Y-138071000D02*
G01*
X57043000Y-138071000D01*
X57043000Y-134769000D01*
X58145000Y-134769000D01*
X58145000Y-138071000D01*
G37*
G36*
X141267000Y-138071000D02*
G01*
X140165000Y-138071000D01*
X140165000Y-134769000D01*
X141267000Y-134769000D01*
X141267000Y-138071000D01*
G37*
G36*
X141267000Y-130931000D02*
G01*
X140165000Y-130931000D01*
X140165000Y-127629000D01*
X141267000Y-127629000D01*
X141267000Y-130931000D01*
G37*
G36*
X54145000Y-130931000D02*
G01*
X53043000Y-130931000D01*
X53043000Y-127629000D01*
X54145000Y-127629000D01*
X54145000Y-130931000D01*
G37*
G36*
X58195000Y-130921000D02*
G01*
X57093000Y-130921000D01*
X57093000Y-127619000D01*
X58195000Y-127619000D01*
X58195000Y-130921000D01*
G37*
G36*
X145317000Y-130921000D02*
G01*
X144215000Y-130921000D01*
X144215000Y-127619000D01*
X145317000Y-127619000D01*
X145317000Y-130921000D01*
G37*
G36*
X54145000Y-117497000D02*
G01*
X53043000Y-117497000D01*
X53043000Y-114195000D01*
X54145000Y-114195000D01*
X54145000Y-117497000D01*
G37*
G36*
X58145000Y-117497000D02*
G01*
X57043000Y-117497000D01*
X57043000Y-114195000D01*
X58145000Y-114195000D01*
X58145000Y-117497000D01*
G37*
G36*
X141267000Y-117221000D02*
G01*
X140165000Y-117221000D01*
X140165000Y-113919000D01*
X141267000Y-113919000D01*
X141267000Y-117221000D01*
G37*
G36*
X145267000Y-117221000D02*
G01*
X144165000Y-117221000D01*
X144165000Y-113919000D01*
X145267000Y-113919000D01*
X145267000Y-117221000D01*
G37*
G36*
X54145000Y-110357000D02*
G01*
X53043000Y-110357000D01*
X53043000Y-107055000D01*
X54145000Y-107055000D01*
X54145000Y-110357000D01*
G37*
G36*
X58195000Y-110347000D02*
G01*
X57093000Y-110347000D01*
X57093000Y-107045000D01*
X58195000Y-107045000D01*
X58195000Y-110347000D01*
G37*
G36*
X141267000Y-110081000D02*
G01*
X140165000Y-110081000D01*
X140165000Y-106779000D01*
X141267000Y-106779000D01*
X141267000Y-110081000D01*
G37*
G36*
X145317000Y-110071000D02*
G01*
X144215000Y-110071000D01*
X144215000Y-106769000D01*
X145317000Y-106769000D01*
X145317000Y-110071000D01*
G37*
G36*
X146113512Y-101023927D02*
G01*
X146262812Y-101053624D01*
X146426784Y-101121544D01*
X146574354Y-101220147D01*
X146699853Y-101345646D01*
X146798456Y-101493216D01*
X146866376Y-101657188D01*
X146901000Y-101831259D01*
X146901000Y-102008741D01*
X146866376Y-102182812D01*
X146798456Y-102346784D01*
X146699853Y-102494354D01*
X146574354Y-102619853D01*
X146426784Y-102718456D01*
X146262812Y-102786376D01*
X146113512Y-102816073D01*
X146088742Y-102821000D01*
X145911258Y-102821000D01*
X145886488Y-102816073D01*
X145737188Y-102786376D01*
X145573216Y-102718456D01*
X145425646Y-102619853D01*
X145300147Y-102494354D01*
X145201544Y-102346784D01*
X145133624Y-102182812D01*
X145099000Y-102008741D01*
X145099000Y-101831259D01*
X145133624Y-101657188D01*
X145201544Y-101493216D01*
X145300147Y-101345646D01*
X145425646Y-101220147D01*
X145573216Y-101121544D01*
X145737188Y-101053624D01*
X145886488Y-101023927D01*
X145911258Y-101019000D01*
X146088742Y-101019000D01*
X146113512Y-101023927D01*
G37*
G36*
X60728536Y-98046016D02*
G01*
X60950213Y-98113261D01*
X61154512Y-98222461D01*
X61333581Y-98369419D01*
X61480539Y-98548488D01*
X61589739Y-98752787D01*
X61656984Y-98974464D01*
X61674000Y-99147229D01*
X61674000Y-101512771D01*
X61656984Y-101685536D01*
X61589739Y-101907213D01*
X61480539Y-102111512D01*
X61333581Y-102290581D01*
X61154511Y-102437539D01*
X60950212Y-102546739D01*
X60728535Y-102613984D01*
X60498000Y-102636690D01*
X60267464Y-102613984D01*
X60045787Y-102546739D01*
X59841488Y-102437539D01*
X59662419Y-102290581D01*
X59515461Y-102111511D01*
X59406261Y-101907212D01*
X59339016Y-101685535D01*
X59322000Y-101512770D01*
X59322001Y-99147229D01*
X59339017Y-98974464D01*
X59406262Y-98752787D01*
X59515462Y-98548488D01*
X59662420Y-98369419D01*
X59841489Y-98222461D01*
X60045788Y-98113261D01*
X60267465Y-98046016D01*
X60498000Y-98023310D01*
X60728536Y-98046016D01*
G37*
G36*
X54504032Y-98294207D02*
G01*
X54702146Y-98354305D01*
X54702149Y-98354306D01*
X54798975Y-98406061D01*
X54884729Y-98451897D01*
X55044765Y-98583235D01*
X55176103Y-98743271D01*
X55181187Y-98752783D01*
X55273694Y-98925851D01*
X55273695Y-98925854D01*
X55333793Y-99123968D01*
X55349000Y-99278370D01*
X55349000Y-101381630D01*
X55333793Y-101536032D01*
X55297040Y-101657188D01*
X55273694Y-101734149D01*
X55221939Y-101830975D01*
X55176103Y-101916729D01*
X55044765Y-102076765D01*
X54884729Y-102208103D01*
X54768030Y-102270479D01*
X54702148Y-102305694D01*
X54702145Y-102305695D01*
X54504031Y-102365793D01*
X54298000Y-102386085D01*
X54091968Y-102365793D01*
X53893854Y-102305695D01*
X53893851Y-102305694D01*
X53797025Y-102253939D01*
X53711271Y-102208103D01*
X53551235Y-102076765D01*
X53419897Y-101916729D01*
X53322307Y-101734149D01*
X53322306Y-101734148D01*
X53322305Y-101734145D01*
X53262207Y-101536031D01*
X53247000Y-101381629D01*
X53247001Y-99278370D01*
X53262208Y-99123968D01*
X53322306Y-98925854D01*
X53322307Y-98925851D01*
X53414814Y-98752783D01*
X53419898Y-98743271D01*
X53551236Y-98583235D01*
X53711272Y-98451897D01*
X53797026Y-98406061D01*
X53893852Y-98354306D01*
X53893855Y-98354305D01*
X54091969Y-98294207D01*
X54298000Y-98273915D01*
X54504032Y-98294207D01*
G37*
G36*
X146113512Y-98483927D02*
G01*
X146262812Y-98513624D01*
X146426784Y-98581544D01*
X146574354Y-98680147D01*
X146699853Y-98805646D01*
X146798456Y-98953216D01*
X146866376Y-99117188D01*
X146901000Y-99291259D01*
X146901000Y-99468741D01*
X146866376Y-99642812D01*
X146798456Y-99806784D01*
X146699853Y-99954354D01*
X146574354Y-100079853D01*
X146426784Y-100178456D01*
X146262812Y-100246376D01*
X146113512Y-100276073D01*
X146088742Y-100281000D01*
X145911258Y-100281000D01*
X145886488Y-100276073D01*
X145737188Y-100246376D01*
X145573216Y-100178456D01*
X145425646Y-100079853D01*
X145300147Y-99954354D01*
X145201544Y-99806784D01*
X145133624Y-99642812D01*
X145099000Y-99468741D01*
X145099000Y-99291259D01*
X145133624Y-99117188D01*
X145201544Y-98953216D01*
X145300147Y-98805646D01*
X145425646Y-98680147D01*
X145573216Y-98581544D01*
X145737188Y-98513624D01*
X145886488Y-98483927D01*
X145911258Y-98479000D01*
X146088742Y-98479000D01*
X146113512Y-98483927D01*
G37*
G36*
X146113512Y-95943927D02*
G01*
X146262812Y-95973624D01*
X146426784Y-96041544D01*
X146574354Y-96140147D01*
X146699853Y-96265646D01*
X146798456Y-96413216D01*
X146866376Y-96577188D01*
X146901000Y-96751259D01*
X146901000Y-96928741D01*
X146866376Y-97102812D01*
X146798456Y-97266784D01*
X146699853Y-97414354D01*
X146574354Y-97539853D01*
X146426784Y-97638456D01*
X146262812Y-97706376D01*
X146113512Y-97736073D01*
X146088742Y-97741000D01*
X145911258Y-97741000D01*
X145886488Y-97736073D01*
X145737188Y-97706376D01*
X145573216Y-97638456D01*
X145425646Y-97539853D01*
X145300147Y-97414354D01*
X145201544Y-97266784D01*
X145133624Y-97102812D01*
X145099000Y-96928741D01*
X145099000Y-96751259D01*
X145133624Y-96577188D01*
X145201544Y-96413216D01*
X145300147Y-96265646D01*
X145425646Y-96140147D01*
X145573216Y-96041544D01*
X145737188Y-95973624D01*
X145886488Y-95943927D01*
X145911258Y-95939000D01*
X146088742Y-95939000D01*
X146113512Y-95943927D01*
G37*
G36*
X58401097Y-94584069D02*
G01*
X58504032Y-94594207D01*
X58702146Y-94654305D01*
X58702149Y-94654306D01*
X58798975Y-94706061D01*
X58884729Y-94751897D01*
X59044765Y-94883235D01*
X59176103Y-95043271D01*
X59221939Y-95129025D01*
X59273694Y-95225851D01*
X59273695Y-95225854D01*
X59333793Y-95423968D01*
X59354085Y-95630000D01*
X59333793Y-95836032D01*
X59292054Y-95973624D01*
X59273694Y-96034149D01*
X59269741Y-96041544D01*
X59176103Y-96216729D01*
X59044765Y-96376765D01*
X58884729Y-96508103D01*
X58798975Y-96553939D01*
X58702149Y-96605694D01*
X58702146Y-96605695D01*
X58504032Y-96665793D01*
X58401097Y-96675931D01*
X58349631Y-96681000D01*
X56246369Y-96681000D01*
X56194903Y-96675931D01*
X56091968Y-96665793D01*
X55893854Y-96605695D01*
X55893851Y-96605694D01*
X55797025Y-96553939D01*
X55711271Y-96508103D01*
X55551235Y-96376765D01*
X55419897Y-96216729D01*
X55326259Y-96041544D01*
X55322306Y-96034149D01*
X55303946Y-95973624D01*
X55262207Y-95836032D01*
X55241915Y-95630000D01*
X55262207Y-95423968D01*
X55322305Y-95225854D01*
X55322306Y-95225851D01*
X55374061Y-95129025D01*
X55419897Y-95043271D01*
X55551235Y-94883235D01*
X55711271Y-94751897D01*
X55797025Y-94706061D01*
X55893851Y-94654306D01*
X55893854Y-94654305D01*
X56091968Y-94594207D01*
X56194903Y-94584069D01*
X56246369Y-94579000D01*
X58349631Y-94579000D01*
X58401097Y-94584069D01*
G37*
G36*
X146901000Y-95201000D02*
G01*
X145099000Y-95201000D01*
X145099000Y-93399000D01*
X146901000Y-93399000D01*
X146901000Y-95201000D01*
G37*
G36*
X137335080Y-61679720D02*
G01*
X136233080Y-61679720D01*
X136233080Y-60077720D01*
X137335080Y-60077720D01*
X137335080Y-61679720D01*
G37*
G36*
X134135080Y-61679720D02*
G01*
X133033080Y-61679720D01*
X133033080Y-60077720D01*
X134135080Y-60077720D01*
X134135080Y-61679720D01*
G37*
G36*
X67861000Y-61581000D02*
G01*
X66759000Y-61581000D01*
X66759000Y-59979000D01*
X67861000Y-59979000D01*
X67861000Y-61581000D01*
G37*
G36*
X64661000Y-61581000D02*
G01*
X63559000Y-61581000D01*
X63559000Y-59979000D01*
X64661000Y-59979000D01*
X64661000Y-61581000D01*
G37*
G36*
X74516000Y-59766000D02*
G01*
X73414000Y-59766000D01*
X73414000Y-58164000D01*
X74516000Y-58164000D01*
X74516000Y-59766000D01*
G37*
G36*
X103726000Y-59766000D02*
G01*
X102624000Y-59766000D01*
X102624000Y-58164000D01*
X103726000Y-58164000D01*
X103726000Y-59766000D01*
G37*
G36*
X106926000Y-59766000D02*
G01*
X105824000Y-59766000D01*
X105824000Y-58164000D01*
X106926000Y-58164000D01*
X106926000Y-59766000D01*
G37*
G36*
X77716000Y-59766000D02*
G01*
X76614000Y-59766000D01*
X76614000Y-58164000D01*
X77716000Y-58164000D01*
X77716000Y-59766000D01*
G37*
G36*
X87876000Y-59766000D02*
G01*
X86774000Y-59766000D01*
X86774000Y-58164000D01*
X87876000Y-58164000D01*
X87876000Y-59766000D01*
G37*
G36*
X117416000Y-59766000D02*
G01*
X116314000Y-59766000D01*
X116314000Y-58164000D01*
X117416000Y-58164000D01*
X117416000Y-59766000D01*
G37*
G36*
X84676000Y-59766000D02*
G01*
X83574000Y-59766000D01*
X83574000Y-58164000D01*
X84676000Y-58164000D01*
X84676000Y-59766000D01*
G37*
G36*
X114216000Y-59766000D02*
G01*
X113114000Y-59766000D01*
X113114000Y-58164000D01*
X114216000Y-58164000D01*
X114216000Y-59766000D01*
G37*
G36*
X126955000Y-59753500D02*
G01*
X125853000Y-59753500D01*
X125853000Y-58151500D01*
X126955000Y-58151500D01*
X126955000Y-59753500D01*
G37*
G36*
X123755000Y-59753500D02*
G01*
X122653000Y-59753500D01*
X122653000Y-58151500D01*
X123755000Y-58151500D01*
X123755000Y-59753500D01*
G37*
G36*
X93871000Y-59676000D02*
G01*
X92769000Y-59676000D01*
X92769000Y-58074000D01*
X93871000Y-58074000D01*
X93871000Y-59676000D01*
G37*
G36*
X97071000Y-59676000D02*
G01*
X95969000Y-59676000D01*
X95969000Y-58074000D01*
X97071000Y-58074000D01*
X97071000Y-59676000D01*
G37*
G36*
X137335080Y-56779720D02*
G01*
X136233080Y-56779720D01*
X136233080Y-55177720D01*
X137335080Y-55177720D01*
X137335080Y-56779720D01*
G37*
G36*
X134135080Y-56779720D02*
G01*
X133033080Y-56779720D01*
X133033080Y-55177720D01*
X134135080Y-55177720D01*
X134135080Y-56779720D01*
G37*
G36*
X64661000Y-56681000D02*
G01*
X63559000Y-56681000D01*
X63559000Y-55079000D01*
X64661000Y-55079000D01*
X64661000Y-56681000D01*
G37*
G36*
X67861000Y-56681000D02*
G01*
X66759000Y-56681000D01*
X66759000Y-55079000D01*
X67861000Y-55079000D01*
X67861000Y-56681000D01*
G37*
G36*
X114216000Y-54866000D02*
G01*
X113114000Y-54866000D01*
X113114000Y-53264000D01*
X114216000Y-53264000D01*
X114216000Y-54866000D01*
G37*
G36*
X106926000Y-54866000D02*
G01*
X105824000Y-54866000D01*
X105824000Y-53264000D01*
X106926000Y-53264000D01*
X106926000Y-54866000D01*
G37*
G36*
X77716000Y-54866000D02*
G01*
X76614000Y-54866000D01*
X76614000Y-53264000D01*
X77716000Y-53264000D01*
X77716000Y-54866000D01*
G37*
G36*
X103726000Y-54866000D02*
G01*
X102624000Y-54866000D01*
X102624000Y-53264000D01*
X103726000Y-53264000D01*
X103726000Y-54866000D01*
G37*
G36*
X74516000Y-54866000D02*
G01*
X73414000Y-54866000D01*
X73414000Y-53264000D01*
X74516000Y-53264000D01*
X74516000Y-54866000D01*
G37*
G36*
X84676000Y-54866000D02*
G01*
X83574000Y-54866000D01*
X83574000Y-53264000D01*
X84676000Y-53264000D01*
X84676000Y-54866000D01*
G37*
G36*
X87876000Y-54866000D02*
G01*
X86774000Y-54866000D01*
X86774000Y-53264000D01*
X87876000Y-53264000D01*
X87876000Y-54866000D01*
G37*
G36*
X117416000Y-54866000D02*
G01*
X116314000Y-54866000D01*
X116314000Y-53264000D01*
X117416000Y-53264000D01*
X117416000Y-54866000D01*
G37*
G36*
X126955000Y-54853500D02*
G01*
X125853000Y-54853500D01*
X125853000Y-53251500D01*
X126955000Y-53251500D01*
X126955000Y-54853500D01*
G37*
G36*
X123755000Y-54853500D02*
G01*
X122653000Y-54853500D01*
X122653000Y-53251500D01*
X123755000Y-53251500D01*
X123755000Y-54853500D01*
G37*
G36*
X97071000Y-54776000D02*
G01*
X95969000Y-54776000D01*
X95969000Y-53174000D01*
X97071000Y-53174000D01*
X97071000Y-54776000D01*
G37*
G36*
X93871000Y-54776000D02*
G01*
X92769000Y-54776000D01*
X92769000Y-53174000D01*
X93871000Y-53174000D01*
X93871000Y-54776000D01*
G37*
M02*
