%TF.GenerationSoftware,KiCad,Pcbnew,(5.1.5)-3*%
%TF.CreationDate,2020-05-13T22:36:07+03:00*%
%TF.ProjectId,dash-board,64617368-2d62-46f6-9172-642e6b696361,rev?*%
%TF.SameCoordinates,Original*%
%TF.FileFunction,Profile,NP*%
%FSLAX46Y46*%
G04 Gerber Fmt 4.6, Leading zero omitted, Abs format (unit mm)*
G04 Created by KiCad (PCBNEW (5.1.5)-3) date 2020-05-13 22:36:07*
%MOMM*%
%LPD*%
G04 APERTURE LIST*
%ADD10C,0.050000*%
G04 APERTURE END LIST*
D10*
X50000000Y-93000000D02*
X50000000Y-148000000D01*
X50000000Y-54000000D02*
X50000000Y-69000000D01*
X54000000Y-89000000D02*
G75*
G02X52000000Y-91000000I-2000000J0D01*
G01*
X50000000Y-93000000D02*
G75*
G02X52000000Y-91000000I2000000J0D01*
G01*
X54000000Y-89000000D02*
X54000000Y-73000000D01*
X54000000Y-73000000D02*
G75*
G03X52000000Y-71000000I-2000000J0D01*
G01*
X50000000Y-69000000D02*
G75*
G03X52000000Y-71000000I2000000J0D01*
G01*
X150000000Y-93000000D02*
X150000000Y-148000000D01*
X150000000Y-69000000D02*
X150000000Y-54000000D01*
X146000000Y-89000000D02*
G75*
G03X148000000Y-91000000I2000000J0D01*
G01*
X150000000Y-93000000D02*
G75*
G03X148000000Y-91000000I-2000000J0D01*
G01*
X150000000Y-69000000D02*
G75*
G02X148000000Y-71000000I-2000000J0D01*
G01*
X146000000Y-73000000D02*
G75*
G02X148000000Y-71000000I2000000J0D01*
G01*
X146000000Y-73000000D02*
X146000000Y-89000000D01*
X114000000Y-151000000D02*
X147000000Y-151000000D01*
X86000000Y-151000000D02*
X53000000Y-151000000D01*
X114000000Y-151000000D02*
G75*
G02X112000000Y-149000000I0J2000000D01*
G01*
X110000000Y-147000000D02*
G75*
G02X112000000Y-149000000I0J-2000000D01*
G01*
X88000000Y-149000000D02*
G75*
G02X86000000Y-151000000I-2000000J0D01*
G01*
X88000000Y-149000000D02*
G75*
G02X90000000Y-147000000I2000000J0D01*
G01*
X110000000Y-147000000D02*
X90000000Y-147000000D01*
X148000000Y-146500000D02*
G75*
G03X148000000Y-146500000I-2500000J0D01*
G01*
X150000000Y-148000000D02*
G75*
G02X147000000Y-151000000I-3000000J0D01*
G01*
X147000000Y-51000000D02*
G75*
G02X150000000Y-54000000I0J-3000000D01*
G01*
X50000000Y-54000000D02*
G75*
G02X53000000Y-51000000I3000000J0D01*
G01*
X148000000Y-55500000D02*
G75*
G03X148000000Y-55500000I-2500000J0D01*
G01*
X57000000Y-55500000D02*
G75*
G03X57000000Y-55500000I-2500000J0D01*
G01*
X53000000Y-151000000D02*
G75*
G02X50000000Y-148000000I0J3000000D01*
G01*
X57000000Y-146500000D02*
G75*
G03X57000000Y-146500000I-2500000J0D01*
G01*
X53000000Y-51000000D02*
X147000000Y-51000000D01*
M02*
